%TF.GenerationSoftware,KiCad,Pcbnew,8.0.2*%
%TF.CreationDate,2024-05-16T13:39:08+01:00*%
%TF.ProjectId,test,74657374-2e6b-4696-9361-645f70636258,rev?*%
%TF.SameCoordinates,Original*%
%TF.FileFunction,Copper,L2,Bot*%
%TF.FilePolarity,Positive*%
%FSLAX46Y46*%
G04 Gerber Fmt 4.6, Leading zero omitted, Abs format (unit mm)*
G04 Created by KiCad (PCBNEW 8.0.2) date 2024-05-16 13:39:08*
%MOMM*%
%LPD*%
G01*
G04 APERTURE LIST*
%TA.AperFunction,ComponentPad*%
%ADD10R,1.700000X1.700000*%
%TD*%
%TA.AperFunction,ComponentPad*%
%ADD11O,1.700000X1.700000*%
%TD*%
%TA.AperFunction,ComponentPad*%
%ADD12R,1.350000X1.350000*%
%TD*%
%TA.AperFunction,ComponentPad*%
%ADD13C,1.350000*%
%TD*%
%TA.AperFunction,ComponentPad*%
%ADD14R,1.800000X1.800000*%
%TD*%
%TA.AperFunction,ComponentPad*%
%ADD15C,1.800000*%
%TD*%
%TA.AperFunction,ComponentPad*%
%ADD16R,1.560000X1.560000*%
%TD*%
%TA.AperFunction,ComponentPad*%
%ADD17C,1.560000*%
%TD*%
%TA.AperFunction,ComponentPad*%
%ADD18C,1.600000*%
%TD*%
%TA.AperFunction,ComponentPad*%
%ADD19O,1.600000X1.600000*%
%TD*%
%TA.AperFunction,Conductor*%
%ADD20C,0.200000*%
%TD*%
G04 APERTURE END LIST*
D10*
%TO.P,J4,1,Pin_1*%
%TO.N,GND*%
X61500000Y-85500000D03*
D11*
%TO.P,J4,2,Pin_2*%
%TO.N,/IO15*%
X58960000Y-85500000D03*
%TO.P,J4,3,Pin_3*%
%TO.N,+5V*%
X56420000Y-85500000D03*
%TD*%
D10*
%TO.P,J10,1,Pin_1*%
%TO.N,/IO26*%
X55460000Y-64000000D03*
D11*
%TO.P,J10,2,Pin_2*%
%TO.N,+5V*%
X58000000Y-64000000D03*
%TO.P,J10,3,Pin_3*%
%TO.N,GND*%
X60540000Y-64000000D03*
%TO.P,J10,4,Pin_4*%
%TO.N,unconnected-(J10-Pin_4-Pad4)*%
X63080000Y-64000000D03*
%TD*%
D10*
%TO.P,SW1,1,A*%
%TO.N,Net-(SW1-A)*%
X92525000Y-34750000D03*
D11*
%TO.P,SW1,2,B*%
%TO.N,GND*%
X92525000Y-37290000D03*
%TD*%
D10*
%TO.P,J3,1,Pin_1*%
%TO.N,GND*%
X56000000Y-56975000D03*
D11*
%TO.P,J3,2,Pin_2*%
%TO.N,+5V*%
X58540000Y-56975000D03*
%TO.P,J3,3,Pin_3*%
%TO.N,/IO34*%
X61080000Y-56975000D03*
%TD*%
D12*
%TO.P,U2,1,GND*%
%TO.N,GND*%
X56500000Y-36500000D03*
D13*
%TO.P,U2,2,MISO*%
%TO.N,Net-(U1-IO19)*%
X58500000Y-36500000D03*
%TO.P,U2,3,MOSI*%
%TO.N,Net-(U1-IO23)*%
X60500000Y-36500000D03*
%TO.P,U2,4,SCK*%
%TO.N,Net-(U1-IO18)*%
X62500000Y-36500000D03*
%TO.P,U2,5,NSS*%
%TO.N,Net-(U1-IO5)*%
X64500000Y-36500000D03*
%TO.P,U2,6,RESET*%
%TO.N,Net-(U1-IO14)*%
X66500000Y-36500000D03*
%TO.P,U2,7,DIO5*%
%TO.N,unconnected-(U2-DIO5-Pad7)*%
X68500000Y-36500000D03*
%TO.P,U2,8,GND*%
%TO.N,unconnected-(U2-GND-Pad8)*%
X70500000Y-36500000D03*
%TO.P,U2,9,ANT*%
%TO.N,Net-(J6-Pin_1)*%
X70500000Y-22900000D03*
%TO.P,U2,10,GND*%
%TO.N,unconnected-(U2-GND-Pad10)*%
X68500000Y-22900000D03*
%TO.P,U2,11,DIO3*%
%TO.N,unconnected-(U2-DIO3-Pad11)*%
X66500000Y-22900000D03*
%TO.P,U2,12,DIO4*%
%TO.N,unconnected-(U2-DIO4-Pad12)*%
X64500000Y-22900000D03*
%TO.P,U2,13,3.3V*%
%TO.N,+3.3V*%
X62500000Y-22900000D03*
%TO.P,U2,14,DIO0*%
%TO.N,Net-(U1-IO2)*%
X60500000Y-22900000D03*
%TO.P,U2,15,DIO1*%
%TO.N,unconnected-(U2-DIO1-Pad15)*%
X58500000Y-22900000D03*
%TO.P,U2,16,DIO2*%
%TO.N,unconnected-(U2-DIO2-Pad16)*%
X56500000Y-22900000D03*
%TD*%
D10*
%TO.P,J5,1,Pin_1*%
%TO.N,/SCL*%
X63040000Y-93000000D03*
D11*
%TO.P,J5,2,Pin_2*%
%TO.N,/SDA*%
X60500000Y-93000000D03*
%TO.P,J5,3,Pin_3*%
%TO.N,+5V*%
X57960000Y-93000000D03*
%TO.P,J5,4,Pin_4*%
%TO.N,GND*%
X55420000Y-93000000D03*
%TD*%
D10*
%TO.P,J1,1,Pin_1*%
%TO.N,GND*%
X60525000Y-77025000D03*
D11*
%TO.P,J1,2,Pin_2*%
%TO.N,/IO4*%
X57985000Y-77025000D03*
%TO.P,J1,3,Pin_3*%
%TO.N,+5V*%
X55445000Y-77025000D03*
%TD*%
D10*
%TO.P,J8,1,Pin_1*%
%TO.N,GND*%
X55975000Y-44975000D03*
D11*
%TO.P,J8,2,Pin_2*%
%TO.N,/IO27*%
X58515000Y-44975000D03*
%TO.P,J8,3,Pin_3*%
%TO.N,+3.3V*%
X61055000Y-44975000D03*
%TD*%
D14*
%TO.P,D1,1,K*%
%TO.N,GND*%
X76500000Y-36500000D03*
D15*
%TO.P,D1,2,A*%
%TO.N,Net-(D1-A)*%
X79040000Y-36500000D03*
%TD*%
D10*
%TO.P,J6,1,Pin_1*%
%TO.N,Net-(J6-Pin_1)*%
X74000000Y-23500000D03*
%TD*%
%TO.P,J9,1,Pin_1*%
%TO.N,/IO25*%
X55460000Y-69975000D03*
D11*
%TO.P,J9,2,Pin_2*%
%TO.N,+5V*%
X58000000Y-69975000D03*
%TO.P,J9,3,Pin_3*%
%TO.N,GND*%
X60540000Y-69975000D03*
%TO.P,J9,4,Pin_4*%
%TO.N,unconnected-(J9-Pin_4-Pad4)*%
X63080000Y-69975000D03*
%TD*%
D16*
%TO.P,U1,J2-1,3V3*%
%TO.N,+3.3V*%
X67300000Y-47240000D03*
D17*
%TO.P,U1,J2-2,EN*%
%TO.N,unconnected-(U1-EN-PadJ2-2)*%
X67300000Y-49780000D03*
%TO.P,U1,J2-3,SENSOR_VP*%
%TO.N,unconnected-(U1-SENSOR_VP-PadJ2-3)*%
X67300000Y-52320000D03*
%TO.P,U1,J2-4,SENSOR_VN*%
%TO.N,unconnected-(U1-SENSOR_VN-PadJ2-4)*%
X67300000Y-54860000D03*
%TO.P,U1,J2-5,IO34*%
%TO.N,/IO34*%
X67300000Y-57400000D03*
%TO.P,U1,J2-6,IO35*%
%TO.N,Net-(U1-IO35)*%
X67300000Y-59940000D03*
%TO.P,U1,J2-7,IO32*%
%TO.N,unconnected-(U1-IO32-PadJ2-7)*%
X67300000Y-62480000D03*
%TO.P,U1,J2-8,IO33*%
%TO.N,unconnected-(U1-IO33-PadJ2-8)*%
X67300000Y-65020000D03*
%TO.P,U1,J2-9,IO25*%
%TO.N,/IO25*%
X67300000Y-67560000D03*
%TO.P,U1,J2-10,IO26*%
%TO.N,/IO26*%
X67300000Y-70100000D03*
%TO.P,U1,J2-11,IO27*%
%TO.N,/IO27*%
X67300000Y-72640000D03*
%TO.P,U1,J2-12,IO14*%
%TO.N,Net-(U1-IO14)*%
X67300000Y-75180000D03*
%TO.P,U1,J2-13,IO12*%
%TO.N,/IO12*%
X67300000Y-77720000D03*
%TO.P,U1,J2-14,GND1*%
%TO.N,GND*%
X67300000Y-80260000D03*
%TO.P,U1,J2-15,IO13*%
%TO.N,unconnected-(U1-IO13-PadJ2-15)*%
X67300000Y-82800000D03*
%TO.P,U1,J2-16,SD2*%
%TO.N,unconnected-(U1-SD2-PadJ2-16)*%
X67300000Y-85340000D03*
%TO.P,U1,J2-17,SD3*%
%TO.N,unconnected-(U1-SD3-PadJ2-17)*%
X67300000Y-87880000D03*
%TO.P,U1,J2-18,CMD*%
%TO.N,unconnected-(U1-CMD-PadJ2-18)*%
X67300000Y-90420000D03*
%TO.P,U1,J2-19,EXT_5V*%
%TO.N,+5V*%
X67300000Y-92960000D03*
%TO.P,U1,J3-1,GND3*%
%TO.N,GND*%
X92700000Y-47240000D03*
%TO.P,U1,J3-2,IO23*%
%TO.N,Net-(U1-IO23)*%
X92700000Y-49780000D03*
%TO.P,U1,J3-3,IO22*%
%TO.N,/SCL*%
X92700000Y-52320000D03*
%TO.P,U1,J3-4,TXD0*%
%TO.N,unconnected-(U1-TXD0-PadJ3-4)*%
X92700000Y-54860000D03*
%TO.P,U1,J3-5,RXD0*%
%TO.N,unconnected-(U1-RXD0-PadJ3-5)*%
X92700000Y-57400000D03*
%TO.P,U1,J3-6,IO21*%
%TO.N,/SDA*%
X92700000Y-59940000D03*
%TO.P,U1,J3-7,GND2*%
%TO.N,GND*%
X92700000Y-62480000D03*
%TO.P,U1,J3-8,IO19*%
%TO.N,Net-(U1-IO19)*%
X92700000Y-65020000D03*
%TO.P,U1,J3-9,IO18*%
%TO.N,Net-(U1-IO18)*%
X92700000Y-67560000D03*
%TO.P,U1,J3-10,IO5*%
%TO.N,Net-(U1-IO5)*%
X92700000Y-70100000D03*
%TO.P,U1,J3-11,IO17*%
%TO.N,Net-(SW1-A)*%
X92700000Y-72640000D03*
%TO.P,U1,J3-12,IO16*%
%TO.N,Net-(U1-IO16)*%
X92700000Y-75180000D03*
%TO.P,U1,J3-13,IO4*%
%TO.N,/IO4*%
X92700000Y-77720000D03*
%TO.P,U1,J3-14,IO0*%
%TO.N,unconnected-(U1-IO0-PadJ3-14)*%
X92700000Y-80260000D03*
%TO.P,U1,J3-15,IO2*%
%TO.N,Net-(U1-IO2)*%
X92700000Y-82800000D03*
%TO.P,U1,J3-16,IO15*%
%TO.N,/IO15*%
X92700000Y-85340000D03*
%TO.P,U1,J3-17,SD1*%
%TO.N,unconnected-(U1-SD1-PadJ3-17)*%
X92700000Y-87880000D03*
%TO.P,U1,J3-18,SD0*%
%TO.N,unconnected-(U1-SD0-PadJ3-18)*%
X92700000Y-90420000D03*
%TO.P,U1,J3-19,CLK*%
%TO.N,unconnected-(U1-CLK-PadJ3-19)*%
X92700000Y-92960000D03*
%TD*%
D10*
%TO.P,J7,1,Pin_1*%
%TO.N,GND*%
X56000000Y-50500000D03*
D11*
%TO.P,J7,2,Pin_2*%
%TO.N,/IO12*%
X58540000Y-50500000D03*
%TO.P,J7,3,Pin_3*%
%TO.N,+3.3V*%
X61080000Y-50500000D03*
%TD*%
D18*
%TO.P,R1,1*%
%TO.N,Net-(D1-A)*%
X89310000Y-36500000D03*
D19*
%TO.P,R1,2*%
%TO.N,Net-(U1-IO35)*%
X81690000Y-36500000D03*
%TD*%
D10*
%TO.P,J2,1,Pin_1*%
%TO.N,/SDA*%
X92500000Y-22700000D03*
D11*
%TO.P,J2,2,Pin_2*%
%TO.N,/SCL*%
X92500000Y-25240000D03*
%TO.P,J2,3,Pin_3*%
%TO.N,GND*%
X92500000Y-27780000D03*
%TO.P,J2,4,Pin_4*%
%TO.N,+5V*%
X92500000Y-30320000D03*
%TD*%
D20*
%TO.N,/IO4*%
X57985000Y-77025000D02*
X59136700Y-77025000D01*
X91588800Y-78831200D02*
X92700000Y-77720000D01*
X59136700Y-77816800D02*
X60151100Y-78831200D01*
X59136700Y-77025000D02*
X59136700Y-77816800D01*
X60151100Y-78831200D02*
X91588800Y-78831200D01*
%TO.N,+5V*%
X67300000Y-92960000D02*
X66104600Y-94155400D01*
X60860800Y-30320000D02*
X92500000Y-30320000D01*
X54823300Y-52106600D02*
X54823300Y-36357500D01*
X56420000Y-85500000D02*
X56420000Y-84348300D01*
X66104600Y-94155400D02*
X59998600Y-94155400D01*
X56420000Y-84348300D02*
X55445000Y-83373300D01*
X57960000Y-93000000D02*
X59111700Y-93000000D01*
X59998600Y-94155400D02*
X59111700Y-93268500D01*
X54823300Y-36357500D02*
X60860800Y-30320000D01*
X58540000Y-55823300D02*
X54823300Y-52106600D01*
X59111700Y-93268500D02*
X59111700Y-93000000D01*
X55445000Y-83373300D02*
X55445000Y-77025000D01*
X58540000Y-56975000D02*
X58540000Y-55823300D01*
%TO.N,GND*%
X56000000Y-58126700D02*
X60540000Y-62666700D01*
X92700000Y-47240000D02*
X92525000Y-47065000D01*
X76500000Y-36500000D02*
X75298300Y-36500000D01*
X92525000Y-37753400D02*
X92525000Y-37290000D01*
X92525000Y-37753400D02*
X78579600Y-37753400D01*
X78579600Y-37753400D02*
X77701700Y-36875500D01*
X61500000Y-85500000D02*
X61500000Y-86651700D01*
X57476700Y-36133700D02*
X59328000Y-34282400D01*
X55420000Y-91848300D02*
X56303400Y-91848300D01*
X56000000Y-56975000D02*
X56000000Y-58126700D01*
X59328000Y-34282400D02*
X73080700Y-34282400D01*
X57476700Y-36500000D02*
X57476700Y-36133700D01*
X92525000Y-47065000D02*
X92525000Y-37753400D01*
X76500000Y-36500000D02*
X77701700Y-36500000D01*
X56303400Y-91848300D02*
X61500000Y-86651700D01*
X55420000Y-93000000D02*
X55420000Y-91848300D01*
X60540000Y-62666700D02*
X60540000Y-64000000D01*
X56500000Y-36500000D02*
X57476700Y-36500000D01*
X77701700Y-36875500D02*
X77701700Y-36500000D01*
X73080700Y-34282400D02*
X75298300Y-36500000D01*
%TO.N,/SDA*%
X93827800Y-61067800D02*
X92700000Y-59940000D01*
X60500000Y-93000000D02*
X61651700Y-93000000D01*
X61651700Y-93000000D02*
X61651700Y-91992300D01*
X61651700Y-91992300D02*
X67034000Y-86610000D01*
X67034000Y-86610000D02*
X92969100Y-86610000D01*
X93827800Y-85751300D02*
X93827800Y-61067800D01*
X92969100Y-86610000D02*
X93827800Y-85751300D01*
%TO.N,/SCL*%
X93815400Y-27438600D02*
X92768500Y-26391700D01*
X92500000Y-25240000D02*
X92500000Y-26391700D01*
X93815400Y-51204600D02*
X93815400Y-27438600D01*
X92700000Y-52320000D02*
X93815400Y-51204600D01*
X92768500Y-26391700D02*
X92500000Y-26391700D01*
%TO.N,/IO34*%
X67300000Y-57400000D02*
X62656700Y-57400000D01*
X61080000Y-56975000D02*
X62231700Y-56975000D01*
X62656700Y-57400000D02*
X62231700Y-56975000D01*
%TO.N,/IO25*%
X58738800Y-67560000D02*
X56611700Y-69687100D01*
X67300000Y-67560000D02*
X58738800Y-67560000D01*
X56611700Y-69687100D02*
X56611700Y-69975000D01*
X55460000Y-69975000D02*
X56611700Y-69975000D01*
%TO.N,Net-(D1-A)*%
X80197100Y-35342900D02*
X79040000Y-36500000D01*
X89310000Y-36500000D02*
X88152900Y-35342900D01*
X88152900Y-35342900D02*
X80197100Y-35342900D01*
%TO.N,/IO15*%
X91588700Y-84228700D02*
X60568500Y-84228700D01*
X60568500Y-84228700D02*
X60111700Y-84685500D01*
X60111700Y-84685500D02*
X60111700Y-85500000D01*
X92700000Y-85340000D02*
X91588700Y-84228700D01*
X58960000Y-85500000D02*
X60111700Y-85500000D01*
%TO.N,Net-(J6-Pin_1)*%
X71100000Y-23500000D02*
X70500000Y-22900000D01*
X74000000Y-23500000D02*
X71100000Y-23500000D01*
%TO.N,Net-(U1-IO5)*%
X92700000Y-70100000D02*
X64500000Y-41900000D01*
X64500000Y-41900000D02*
X64500000Y-36500000D01*
%TO.N,+3.3V*%
X61080000Y-50500000D02*
X61080000Y-49348300D01*
X63830000Y-46598300D02*
X62206700Y-44975000D01*
X64471700Y-47240000D02*
X63830000Y-46598300D01*
X67300000Y-47240000D02*
X64471700Y-47240000D01*
X63830000Y-46598300D02*
X61080000Y-49348300D01*
X61055000Y-44975000D02*
X62206700Y-44975000D01*
%TO.N,Net-(U1-IO18)*%
X65500000Y-36082300D02*
X64939600Y-35521900D01*
X92700000Y-67560000D02*
X65500000Y-40360000D01*
X65500000Y-40360000D02*
X65500000Y-36082300D01*
X63478100Y-35521900D02*
X62500000Y-36500000D01*
X64939600Y-35521900D02*
X63478100Y-35521900D01*
%TO.N,Net-(U1-IO23)*%
X86786000Y-49780000D02*
X92700000Y-49780000D01*
X60500000Y-36500000D02*
X62314400Y-34685600D01*
X71691600Y-34685600D02*
X86786000Y-49780000D01*
X62314400Y-34685600D02*
X71691600Y-34685600D01*
%TO.N,Net-(U1-IO19)*%
X60881500Y-37536600D02*
X61500000Y-36918100D01*
X61500000Y-36118800D02*
X62531500Y-35087300D01*
X59536600Y-37536600D02*
X60881500Y-37536600D01*
X61500000Y-36918100D02*
X61500000Y-36118800D01*
X67500000Y-39820000D02*
X92700000Y-65020000D01*
X58500000Y-36500000D02*
X59536600Y-37536600D01*
X67500000Y-36083000D02*
X67500000Y-39820000D01*
X66504300Y-35087300D02*
X67500000Y-36083000D01*
X62531500Y-35087300D02*
X66504300Y-35087300D01*
%TO.N,/IO26*%
X67716600Y-66438400D02*
X58762200Y-66438400D01*
X68431100Y-68968900D02*
X68431100Y-67152900D01*
X56611700Y-64287900D02*
X56611700Y-64000000D01*
X55460000Y-64000000D02*
X56611700Y-64000000D01*
X68431100Y-67152900D02*
X67716600Y-66438400D01*
X67300000Y-70100000D02*
X68431100Y-68968900D01*
X58762200Y-66438400D02*
X56611700Y-64287900D01*
%TD*%
M02*
