%TF.GenerationSoftware,KiCad,Pcbnew,8.0.2*%
%TF.CreationDate,2024-05-16T13:39:08+01:00*%
%TF.ProjectId,test,74657374-2e6b-4696-9361-645f70636258,rev?*%
%TF.SameCoordinates,Original*%
%TF.FileFunction,Legend,Top*%
%TF.FilePolarity,Positive*%
%FSLAX46Y46*%
G04 Gerber Fmt 4.6, Leading zero omitted, Abs format (unit mm)*
G04 Created by KiCad (PCBNEW 8.0.2) date 2024-05-16 13:39:08*
%MOMM*%
%LPD*%
G01*
G04 APERTURE LIST*
%ADD10C,0.300000*%
%ADD11C,0.150000*%
%ADD12C,0.000000*%
%ADD13C,0.120000*%
%ADD14C,0.127000*%
%ADD15C,0.200000*%
G04 APERTURE END LIST*
D10*
G36*
X55470429Y-17896779D02*
G01*
X55470429Y-18412620D01*
X56024738Y-18412620D01*
X56024738Y-18565027D01*
X55470429Y-18565027D01*
X55470429Y-19092592D01*
X56083357Y-19092592D01*
X56083357Y-19245000D01*
X55297872Y-19245000D01*
X55297872Y-17744371D01*
X56083357Y-17744371D01*
X56083357Y-17896779D01*
X55470429Y-17896779D01*
G37*
G36*
X56825977Y-19256723D02*
G01*
X56744885Y-19252608D01*
X56669356Y-19240263D01*
X56591962Y-19216892D01*
X56562928Y-19204699D01*
X56496438Y-19167949D01*
X56434209Y-19118266D01*
X56383409Y-19058886D01*
X56346072Y-18990337D01*
X56324234Y-18913649D01*
X56317830Y-18836870D01*
X56494784Y-18836870D01*
X56510861Y-18910248D01*
X56547259Y-18980719D01*
X56587474Y-19027013D01*
X56652525Y-19071024D01*
X56727515Y-19095181D01*
X56807915Y-19104014D01*
X56827443Y-19104316D01*
X56904742Y-19098520D01*
X56979074Y-19078484D01*
X57046789Y-19039916D01*
X57057519Y-19031043D01*
X57108868Y-18970507D01*
X57136517Y-18899358D01*
X57141783Y-18846029D01*
X57131640Y-18769345D01*
X57095621Y-18701315D01*
X57039750Y-18650577D01*
X56979117Y-18618517D01*
X56906909Y-18593172D01*
X56835219Y-18571880D01*
X56782746Y-18557700D01*
X56711969Y-18537665D01*
X56641377Y-18515398D01*
X56568085Y-18488577D01*
X56544976Y-18478932D01*
X56477288Y-18440481D01*
X56421999Y-18392215D01*
X56392934Y-18358398D01*
X56354312Y-18288485D01*
X56334567Y-18210188D01*
X56329553Y-18136015D01*
X56336740Y-18058654D01*
X56358299Y-17987267D01*
X56390370Y-17927554D01*
X56438277Y-17869138D01*
X56497874Y-17820333D01*
X56562195Y-17784305D01*
X56634387Y-17757064D01*
X56712662Y-17739912D01*
X56788309Y-17733102D01*
X56814620Y-17732648D01*
X56890135Y-17736280D01*
X56971171Y-17749699D01*
X57044599Y-17773005D01*
X57110418Y-17806199D01*
X57152774Y-17835963D01*
X57210682Y-17892016D01*
X57255081Y-17957229D01*
X57285970Y-18031601D01*
X57301916Y-18104190D01*
X57303350Y-18115132D01*
X57120168Y-18115132D01*
X57096545Y-18042156D01*
X57051275Y-17978613D01*
X57023081Y-17952466D01*
X56960238Y-17914087D01*
X56883542Y-17891638D01*
X56810487Y-17885121D01*
X56801797Y-17885055D01*
X56725261Y-17891638D01*
X56650989Y-17914087D01*
X56587108Y-17952466D01*
X56535313Y-18009654D01*
X56507423Y-18080648D01*
X56502111Y-18135648D01*
X56512254Y-18210411D01*
X56548273Y-18277431D01*
X56604740Y-18327622D01*
X56666242Y-18360230D01*
X56738781Y-18386146D01*
X56809845Y-18407787D01*
X56861514Y-18422145D01*
X56938627Y-18444756D01*
X57014247Y-18469743D01*
X57085197Y-18497064D01*
X57096720Y-18502013D01*
X57161000Y-18537716D01*
X57217552Y-18585475D01*
X57250960Y-18624012D01*
X57289582Y-18693667D01*
X57309327Y-18771276D01*
X57314341Y-18844563D01*
X57306355Y-18922479D01*
X57282398Y-18997406D01*
X57257554Y-19045697D01*
X57212150Y-19106769D01*
X57154018Y-19159010D01*
X57090126Y-19198838D01*
X57016788Y-19229363D01*
X56943627Y-19247170D01*
X56863684Y-19255819D01*
X56825977Y-19256723D01*
G37*
G36*
X58082825Y-17747278D02*
G01*
X58165325Y-17758441D01*
X58239222Y-17777976D01*
X58314561Y-17811347D01*
X58378189Y-17856114D01*
X58386322Y-17863440D01*
X58436286Y-17919249D01*
X58473978Y-17982491D01*
X58499398Y-18053166D01*
X58512546Y-18131275D01*
X58514550Y-18179246D01*
X58508467Y-18260745D01*
X58490217Y-18335022D01*
X58459800Y-18402076D01*
X58417217Y-18461907D01*
X58387422Y-18492854D01*
X58325860Y-18539248D01*
X58252412Y-18574248D01*
X58179996Y-18595178D01*
X58098848Y-18607736D01*
X58024554Y-18611806D01*
X58008967Y-18611922D01*
X57725768Y-18611922D01*
X57725768Y-19245000D01*
X57553210Y-19245000D01*
X57553210Y-18459515D01*
X57725768Y-18459515D01*
X58009700Y-18459515D01*
X58087581Y-18455152D01*
X58170330Y-18437432D01*
X58236853Y-18406080D01*
X58295264Y-18350464D01*
X58330310Y-18275219D01*
X58341668Y-18197520D01*
X58341992Y-18180345D01*
X58335820Y-18106865D01*
X58311510Y-18031853D01*
X58263957Y-17968586D01*
X58198705Y-17927704D01*
X58128059Y-17906877D01*
X58052221Y-17897901D01*
X58009700Y-17896779D01*
X57725768Y-17896779D01*
X57725768Y-18459515D01*
X57553210Y-18459515D01*
X57553210Y-17744371D01*
X58007502Y-17744371D01*
X58082825Y-17747278D01*
G37*
G36*
X58709822Y-18110369D02*
G01*
X58720281Y-18035172D01*
X58743292Y-17956004D01*
X58777943Y-17886057D01*
X58824235Y-17825332D01*
X58864428Y-17787602D01*
X58928855Y-17743349D01*
X59000960Y-17709965D01*
X59080744Y-17687450D01*
X59155242Y-17676802D01*
X59221633Y-17674030D01*
X59299876Y-17678145D01*
X59379403Y-17692370D01*
X59451130Y-17716756D01*
X59471127Y-17726053D01*
X59537311Y-17766365D01*
X59595589Y-17820710D01*
X59629763Y-17868569D01*
X59662581Y-17939581D01*
X59680252Y-18016878D01*
X59683618Y-18071901D01*
X59677069Y-18146106D01*
X59654429Y-18221826D01*
X59615617Y-18290462D01*
X59600820Y-18309672D01*
X59543611Y-18364791D01*
X59475025Y-18404669D01*
X59403570Y-18427527D01*
X59377704Y-18432404D01*
X59377704Y-18423244D01*
X59455287Y-18445495D01*
X59524407Y-18479685D01*
X59585066Y-18525814D01*
X59615108Y-18556601D01*
X59659560Y-18620405D01*
X59689464Y-18694353D01*
X59703833Y-18768599D01*
X59707066Y-18829542D01*
X59701088Y-18908508D01*
X59683153Y-18980951D01*
X59648017Y-19055758D01*
X59597264Y-19122047D01*
X59582135Y-19137288D01*
X59522184Y-19183826D01*
X59451644Y-19218933D01*
X59370515Y-19242610D01*
X59292548Y-19253807D01*
X59221633Y-19256723D01*
X59140446Y-19252537D01*
X59064772Y-19239979D01*
X58983453Y-19214747D01*
X58909637Y-19178119D01*
X58852338Y-19137655D01*
X58794738Y-19080073D01*
X58748884Y-19011832D01*
X58718930Y-18944856D01*
X58697605Y-18870049D01*
X58684909Y-18787411D01*
X58850506Y-18787411D01*
X58867575Y-18865476D01*
X58896526Y-18933573D01*
X58942629Y-18997543D01*
X58965178Y-19019685D01*
X59030723Y-19064315D01*
X59099992Y-19090348D01*
X59178997Y-19102993D01*
X59217237Y-19104316D01*
X59298406Y-19097911D01*
X59374999Y-19075772D01*
X59442722Y-19033154D01*
X59453175Y-19023349D01*
X59499481Y-18962317D01*
X59526565Y-18890548D01*
X59534508Y-18815987D01*
X59523614Y-18726802D01*
X59490931Y-18652733D01*
X59436459Y-18593780D01*
X59360199Y-18549944D01*
X59283503Y-18525758D01*
X59192862Y-18511246D01*
X59115730Y-18506711D01*
X59088276Y-18506409D01*
X59030391Y-18506409D01*
X59030391Y-18354002D01*
X59090475Y-18354002D01*
X59165638Y-18351648D01*
X59254355Y-18341186D01*
X59329929Y-18322356D01*
X59405914Y-18287049D01*
X59461363Y-18238664D01*
X59500793Y-18163342D01*
X59511061Y-18086189D01*
X59501970Y-18011209D01*
X59471315Y-17941657D01*
X59434124Y-17897878D01*
X59367148Y-17854344D01*
X59289461Y-17832088D01*
X59214306Y-17826437D01*
X59139496Y-17832117D01*
X59065550Y-17851752D01*
X58995367Y-17889549D01*
X58983863Y-17898244D01*
X58930264Y-17955707D01*
X58896490Y-18021996D01*
X58878268Y-18093097D01*
X58875785Y-18110369D01*
X58709822Y-18110369D01*
G37*
G36*
X59918458Y-19118237D02*
G01*
X59990359Y-19063584D01*
X60059060Y-19010084D01*
X60124560Y-18957737D01*
X60186860Y-18906542D01*
X60245959Y-18856500D01*
X60301857Y-18807611D01*
X60371409Y-18744218D01*
X60435270Y-18682875D01*
X60493442Y-18623581D01*
X60520394Y-18594703D01*
X60569682Y-18537550D01*
X60622050Y-18466624D01*
X60664149Y-18396271D01*
X60695981Y-18326490D01*
X60720625Y-18243508D01*
X60730482Y-18161351D01*
X60730687Y-18147739D01*
X60725152Y-18072742D01*
X60706018Y-18000084D01*
X60669185Y-17933136D01*
X60660712Y-17922424D01*
X60602206Y-17874450D01*
X60530536Y-17848118D01*
X60450983Y-17838490D01*
X60431368Y-17838161D01*
X60357935Y-17844206D01*
X60285887Y-17865458D01*
X60218954Y-17907017D01*
X60190667Y-17934881D01*
X60146037Y-18002880D01*
X60120004Y-18076988D01*
X60108103Y-18153129D01*
X60106036Y-18205624D01*
X59933479Y-18205624D01*
X59936824Y-18129745D01*
X59949670Y-18046317D01*
X59972150Y-17971209D01*
X60004264Y-17904422D01*
X60053907Y-17837020D01*
X60070499Y-17819842D01*
X60134442Y-17767595D01*
X60206380Y-17728180D01*
X60286312Y-17701598D01*
X60361188Y-17689027D01*
X60428071Y-17685753D01*
X60504659Y-17689926D01*
X60586883Y-17705344D01*
X60661427Y-17732121D01*
X60728294Y-17770259D01*
X60771354Y-17804455D01*
X60822745Y-17860943D01*
X60861514Y-17926862D01*
X60887660Y-18002214D01*
X60901184Y-18086996D01*
X60903245Y-18139678D01*
X60898030Y-18220642D01*
X60882387Y-18300729D01*
X60856314Y-18379939D01*
X60819811Y-18458272D01*
X60772880Y-18535729D01*
X60727826Y-18597064D01*
X60689655Y-18642697D01*
X60635278Y-18702700D01*
X60578761Y-18761628D01*
X60520102Y-18819479D01*
X60459303Y-18876254D01*
X60396363Y-18931953D01*
X60331282Y-18986575D01*
X60264060Y-19040122D01*
X60194697Y-19092592D01*
X60950140Y-19092592D01*
X60950140Y-19245000D01*
X59918458Y-19245000D01*
X59918458Y-19118237D01*
G37*
G36*
X62212997Y-19256723D02*
G01*
X62131905Y-19252608D01*
X62056377Y-19240263D01*
X61978982Y-19216892D01*
X61949948Y-19204699D01*
X61883458Y-19167949D01*
X61821229Y-19118266D01*
X61770429Y-19058886D01*
X61733093Y-18990337D01*
X61711254Y-18913649D01*
X61704850Y-18836870D01*
X61881804Y-18836870D01*
X61897881Y-18910248D01*
X61934280Y-18980719D01*
X61974494Y-19027013D01*
X62039545Y-19071024D01*
X62114535Y-19095181D01*
X62194935Y-19104014D01*
X62214463Y-19104316D01*
X62291762Y-19098520D01*
X62366094Y-19078484D01*
X62433809Y-19039916D01*
X62444540Y-19031043D01*
X62495888Y-18970507D01*
X62523537Y-18899358D01*
X62528803Y-18846029D01*
X62518660Y-18769345D01*
X62482641Y-18701315D01*
X62426770Y-18650577D01*
X62366138Y-18618517D01*
X62293929Y-18593172D01*
X62222239Y-18571880D01*
X62169766Y-18557700D01*
X62098989Y-18537665D01*
X62028397Y-18515398D01*
X61955105Y-18488577D01*
X61931996Y-18478932D01*
X61864308Y-18440481D01*
X61809019Y-18392215D01*
X61779955Y-18358398D01*
X61741332Y-18288485D01*
X61721587Y-18210188D01*
X61716574Y-18136015D01*
X61723760Y-18058654D01*
X61745319Y-17987267D01*
X61777390Y-17927554D01*
X61825298Y-17869138D01*
X61884894Y-17820333D01*
X61949215Y-17784305D01*
X62021407Y-17757064D01*
X62099682Y-17739912D01*
X62175329Y-17733102D01*
X62201640Y-17732648D01*
X62277155Y-17736280D01*
X62358192Y-17749699D01*
X62431619Y-17773005D01*
X62497439Y-17806199D01*
X62539794Y-17835963D01*
X62597703Y-17892016D01*
X62642101Y-17957229D01*
X62672991Y-18031601D01*
X62688936Y-18104190D01*
X62690370Y-18115132D01*
X62507188Y-18115132D01*
X62483565Y-18042156D01*
X62438296Y-17978613D01*
X62410101Y-17952466D01*
X62347258Y-17914087D01*
X62270562Y-17891638D01*
X62197507Y-17885121D01*
X62188817Y-17885055D01*
X62112281Y-17891638D01*
X62038010Y-17914087D01*
X61974128Y-17952466D01*
X61922333Y-18009654D01*
X61894444Y-18080648D01*
X61889131Y-18135648D01*
X61899274Y-18210411D01*
X61935293Y-18277431D01*
X61991761Y-18327622D01*
X62053262Y-18360230D01*
X62125801Y-18386146D01*
X62196865Y-18407787D01*
X62248535Y-18422145D01*
X62325647Y-18444756D01*
X62401267Y-18469743D01*
X62472217Y-18497064D01*
X62483741Y-18502013D01*
X62548020Y-18537716D01*
X62604572Y-18585475D01*
X62637980Y-18624012D01*
X62676603Y-18693667D01*
X62696347Y-18771276D01*
X62701361Y-18844563D01*
X62693375Y-18922479D01*
X62669418Y-18997406D01*
X62644574Y-19045697D01*
X62599170Y-19106769D01*
X62541038Y-19159010D01*
X62477146Y-19198838D01*
X62403809Y-19229363D01*
X62330647Y-19247170D01*
X62250704Y-19255819D01*
X62212997Y-19256723D01*
G37*
G36*
X63523643Y-18065467D02*
G01*
X63599228Y-18079137D01*
X63669639Y-18101920D01*
X63734874Y-18133817D01*
X63800952Y-18178797D01*
X63857814Y-18231718D01*
X63905460Y-18292579D01*
X63927948Y-18329822D01*
X63960535Y-18401151D01*
X63982457Y-18476653D01*
X63993714Y-18556329D01*
X63995359Y-18602397D01*
X63993912Y-18676125D01*
X63990230Y-18729159D01*
X63042446Y-18729159D01*
X63048940Y-18803080D01*
X63070836Y-18877106D01*
X63097401Y-18928094D01*
X63143786Y-18987514D01*
X63199960Y-19034981D01*
X63242847Y-19059986D01*
X63312811Y-19086999D01*
X63387515Y-19101545D01*
X63439951Y-19104316D01*
X63515109Y-19099157D01*
X63590257Y-19081326D01*
X63662754Y-19047000D01*
X63674791Y-19039103D01*
X63732710Y-18987948D01*
X63775997Y-18924153D01*
X63802652Y-18855188D01*
X63981804Y-18855188D01*
X63956960Y-18932735D01*
X63923140Y-19002850D01*
X63880344Y-19065531D01*
X63828572Y-19120779D01*
X63794958Y-19149012D01*
X63730151Y-19190982D01*
X63658506Y-19222643D01*
X63580024Y-19243996D01*
X63507313Y-19254093D01*
X63442882Y-19256723D01*
X63362900Y-19252144D01*
X63287086Y-19238405D01*
X63215439Y-19215507D01*
X63147959Y-19183450D01*
X63086272Y-19142784D01*
X63025305Y-19087838D01*
X62978605Y-19030822D01*
X62943528Y-18974623D01*
X62911311Y-18904052D01*
X62888298Y-18827894D01*
X62874491Y-18746149D01*
X62869960Y-18670039D01*
X62869888Y-18658817D01*
X62873360Y-18582060D01*
X62874122Y-18576751D01*
X63042446Y-18576751D01*
X63822802Y-18576751D01*
X63815435Y-18498819D01*
X63793332Y-18427687D01*
X63770412Y-18384043D01*
X63721733Y-18322351D01*
X63660236Y-18274203D01*
X63627530Y-18256549D01*
X63557239Y-18230205D01*
X63482106Y-18216020D01*
X63429327Y-18213318D01*
X63351886Y-18219454D01*
X63280400Y-18237864D01*
X63207093Y-18273245D01*
X63155286Y-18311503D01*
X63100739Y-18372181D01*
X63064044Y-18443755D01*
X63046413Y-18516524D01*
X63042446Y-18576751D01*
X62874122Y-18576751D01*
X62883773Y-18509512D01*
X62904175Y-18431751D01*
X62933644Y-18359486D01*
X62942429Y-18342278D01*
X62982477Y-18278118D01*
X63029715Y-18221927D01*
X63091452Y-18168237D01*
X63145761Y-18133450D01*
X63213378Y-18101714D01*
X63285437Y-18079045D01*
X63361939Y-18065444D01*
X63442882Y-18060910D01*
X63523643Y-18065467D01*
G37*
G36*
X64798430Y-18060910D02*
G01*
X64874971Y-18065470D01*
X64957368Y-18082315D01*
X65032331Y-18111571D01*
X65099860Y-18153240D01*
X65143545Y-18190603D01*
X65195793Y-18252866D01*
X65235208Y-18326174D01*
X65258778Y-18397799D01*
X65272920Y-18477539D01*
X65277634Y-18565394D01*
X65277634Y-19245000D01*
X65105077Y-19245000D01*
X65105077Y-18582979D01*
X65100764Y-18508079D01*
X65085274Y-18432568D01*
X65054381Y-18360482D01*
X65014951Y-18307840D01*
X64952340Y-18257994D01*
X64884855Y-18228918D01*
X64806822Y-18214795D01*
X64768754Y-18213318D01*
X64692917Y-18219615D01*
X64617234Y-18241752D01*
X64551752Y-18279829D01*
X64513765Y-18314068D01*
X64467719Y-18378391D01*
X64439440Y-18448412D01*
X64423068Y-18530523D01*
X64418510Y-18612288D01*
X64418510Y-19245000D01*
X64245953Y-19245000D01*
X64245953Y-18072634D01*
X64418510Y-18072634D01*
X64418510Y-18241161D01*
X64466311Y-18181532D01*
X64527388Y-18136495D01*
X64558828Y-18118429D01*
X64627879Y-18088097D01*
X64702225Y-18068999D01*
X64781866Y-18061135D01*
X64798430Y-18060910D01*
G37*
G36*
X65972261Y-19256723D02*
G01*
X65887914Y-19252218D01*
X65810544Y-19238701D01*
X65740152Y-19216174D01*
X65668247Y-19179394D01*
X65643632Y-19162568D01*
X65586686Y-19110200D01*
X65543706Y-19047621D01*
X65514695Y-18974829D01*
X65500768Y-18902758D01*
X65499651Y-18891824D01*
X65674407Y-18891824D01*
X65693863Y-18966070D01*
X65739023Y-19029663D01*
X65761235Y-19048262D01*
X65832039Y-19084554D01*
X65905835Y-19100812D01*
X65967498Y-19104316D01*
X66045620Y-19096897D01*
X66118920Y-19069488D01*
X66144452Y-19051559D01*
X66192263Y-18992666D01*
X66208200Y-18921500D01*
X66186957Y-18849327D01*
X66173395Y-18833206D01*
X66112575Y-18790366D01*
X66082903Y-18777519D01*
X66012441Y-18753908D01*
X65936867Y-18732910D01*
X65930862Y-18731357D01*
X65855915Y-18710291D01*
X65783886Y-18687118D01*
X65722767Y-18663946D01*
X65656730Y-18627681D01*
X65599669Y-18578514D01*
X65585014Y-18562096D01*
X65546195Y-18493635D01*
X65530224Y-18420889D01*
X65528228Y-18379647D01*
X65538326Y-18306447D01*
X65568619Y-18238156D01*
X65580984Y-18219546D01*
X65630923Y-18164854D01*
X65695011Y-18120440D01*
X65729362Y-18103408D01*
X65804632Y-18077511D01*
X65879876Y-18064272D01*
X65945883Y-18060910D01*
X66025760Y-18065521D01*
X66098694Y-18079353D01*
X66173547Y-18106452D01*
X66239332Y-18145596D01*
X66254362Y-18157264D01*
X66305973Y-18210707D01*
X66342839Y-18274684D01*
X66364958Y-18349193D01*
X66372216Y-18423029D01*
X66372331Y-18434235D01*
X66199773Y-18434235D01*
X66188406Y-18356604D01*
X66150739Y-18290446D01*
X66130897Y-18271203D01*
X66066107Y-18233725D01*
X65990630Y-18216088D01*
X65939655Y-18213318D01*
X65864796Y-18220221D01*
X65792438Y-18245727D01*
X65766364Y-18262411D01*
X65717180Y-18316907D01*
X65700785Y-18382212D01*
X65717194Y-18454167D01*
X65738887Y-18484427D01*
X65798047Y-18529740D01*
X65836340Y-18547808D01*
X65906316Y-18572355D01*
X65978817Y-18594457D01*
X65997540Y-18599832D01*
X66070334Y-18620526D01*
X66144935Y-18644981D01*
X66196476Y-18665045D01*
X66262116Y-18701506D01*
X66318900Y-18751813D01*
X66325803Y-18759567D01*
X66363369Y-18822699D01*
X66379416Y-18895638D01*
X66380757Y-18927362D01*
X66372111Y-19001072D01*
X66343460Y-19072880D01*
X66328367Y-19096622D01*
X66279447Y-19151849D01*
X66217224Y-19196677D01*
X66184020Y-19213859D01*
X66110964Y-19239979D01*
X66037299Y-19253332D01*
X65972261Y-19256723D01*
G37*
G36*
X67241255Y-18065513D02*
G01*
X67317917Y-18079320D01*
X67390732Y-18102332D01*
X67459700Y-18134549D01*
X67523287Y-18175078D01*
X67579593Y-18223393D01*
X67628617Y-18279492D01*
X67670359Y-18343377D01*
X67703859Y-18413788D01*
X67727787Y-18489831D01*
X67742144Y-18571507D01*
X67746855Y-18647595D01*
X67746930Y-18658817D01*
X67743213Y-18734734D01*
X67729864Y-18816645D01*
X67706806Y-18893381D01*
X67674039Y-18964942D01*
X67669260Y-18973524D01*
X67626991Y-19037889D01*
X67577486Y-19094332D01*
X67520745Y-19142853D01*
X67456769Y-19183450D01*
X67387320Y-19215507D01*
X67314162Y-19238405D01*
X67237294Y-19252144D01*
X67156717Y-19256723D01*
X67076162Y-19252144D01*
X66999730Y-19238405D01*
X66927419Y-19215507D01*
X66859229Y-19183450D01*
X66796741Y-19142921D01*
X66741168Y-19094607D01*
X66692510Y-19038507D01*
X66650768Y-18974623D01*
X66617429Y-18904052D01*
X66593615Y-18827894D01*
X66579327Y-18746149D01*
X66574638Y-18670039D01*
X66574564Y-18658817D01*
X66747122Y-18658817D01*
X66751584Y-18737568D01*
X66767012Y-18816437D01*
X66793459Y-18886218D01*
X66803542Y-18905380D01*
X66846660Y-18968168D01*
X66903572Y-19023036D01*
X66953018Y-19054856D01*
X67025610Y-19084996D01*
X67103250Y-19101224D01*
X67157816Y-19104316D01*
X67232143Y-19098471D01*
X67308684Y-19078765D01*
X67362980Y-19054856D01*
X67428599Y-19010652D01*
X67479970Y-18957640D01*
X67515754Y-18905380D01*
X67546666Y-18838168D01*
X67566129Y-18762011D01*
X67573857Y-18685823D01*
X67574372Y-18658817D01*
X67569822Y-18580242D01*
X67554094Y-18501503D01*
X67527132Y-18431779D01*
X67516853Y-18412620D01*
X67472979Y-18349623D01*
X67415243Y-18294626D01*
X67365178Y-18262777D01*
X67292140Y-18232638D01*
X67214259Y-18216409D01*
X67159648Y-18213318D01*
X67085278Y-18219162D01*
X67008590Y-18238868D01*
X66954117Y-18262777D01*
X66888807Y-18306981D01*
X66834110Y-18365405D01*
X66803542Y-18412254D01*
X66773789Y-18479308D01*
X66755056Y-18555450D01*
X66747617Y-18631748D01*
X66747122Y-18658817D01*
X66574564Y-18658817D01*
X66578263Y-18581970D01*
X66589360Y-18509472D01*
X66611102Y-18431940D01*
X66642506Y-18360087D01*
X66651867Y-18343011D01*
X66694159Y-18279286D01*
X66743366Y-18223301D01*
X66799489Y-18175056D01*
X66862526Y-18134549D01*
X66931174Y-18102332D01*
X67003760Y-18079320D01*
X67080284Y-18065513D01*
X67160747Y-18060910D01*
X67241255Y-18065513D01*
G37*
G36*
X68165684Y-18249588D02*
G01*
X68211480Y-18186848D01*
X68270350Y-18139673D01*
X68294644Y-18123925D01*
X68364075Y-18090694D01*
X68436045Y-18071310D01*
X68516999Y-18061895D01*
X68555862Y-18060910D01*
X68555862Y-18248489D01*
X68504571Y-18248489D01*
X68431321Y-18253572D01*
X68358166Y-18271443D01*
X68288371Y-18306391D01*
X68258008Y-18329822D01*
X68209321Y-18391409D01*
X68180921Y-18465621D01*
X68167938Y-18546524D01*
X68165684Y-18604228D01*
X68165684Y-19245000D01*
X67993126Y-19245000D01*
X67993126Y-18072634D01*
X68165684Y-18072634D01*
X68165684Y-18249588D01*
G37*
G36*
X69845262Y-17746572D02*
G01*
X69930682Y-17755021D01*
X70011234Y-17769807D01*
X70086916Y-17790930D01*
X70157731Y-17818391D01*
X70191312Y-17834497D01*
X70264447Y-17877749D01*
X70329657Y-17928644D01*
X70386944Y-17987183D01*
X70436307Y-18053365D01*
X70460956Y-18094616D01*
X70497358Y-18172003D01*
X70521444Y-18243135D01*
X70538961Y-18318698D01*
X70549909Y-18398691D01*
X70554288Y-18483115D01*
X70554379Y-18497616D01*
X70551095Y-18582242D01*
X70541241Y-18662463D01*
X70524819Y-18738279D01*
X70501829Y-18809690D01*
X70466704Y-18887435D01*
X70460956Y-18898053D01*
X70416122Y-18968122D01*
X70363363Y-19030548D01*
X70302680Y-19085330D01*
X70234074Y-19132468D01*
X70191312Y-19155973D01*
X70122932Y-19186228D01*
X70049684Y-19210224D01*
X69971566Y-19227959D01*
X69888581Y-19239435D01*
X69800726Y-19244652D01*
X69770359Y-19245000D01*
X69326692Y-19245000D01*
X69326692Y-19092592D01*
X69499250Y-19092592D01*
X69772191Y-19092592D01*
X69862002Y-19088773D01*
X69944819Y-19077315D01*
X70020641Y-19058218D01*
X70089468Y-19031484D01*
X70162829Y-18989319D01*
X70226117Y-18936154D01*
X70279032Y-18872961D01*
X70320999Y-18800983D01*
X70352019Y-18720221D01*
X70369505Y-18646210D01*
X70379389Y-18566098D01*
X70381821Y-18497616D01*
X70378020Y-18412052D01*
X70366616Y-18332588D01*
X70347609Y-18259224D01*
X70314765Y-18179239D01*
X70270973Y-18108038D01*
X70226117Y-18055415D01*
X70162829Y-18001503D01*
X70089468Y-17958746D01*
X70020641Y-17931635D01*
X69944819Y-17912271D01*
X69862002Y-17900652D01*
X69772191Y-17896779D01*
X69499250Y-17896779D01*
X69499250Y-19092592D01*
X69326692Y-19092592D01*
X69326692Y-17744371D01*
X69770359Y-17744371D01*
X69845262Y-17746572D01*
G37*
G36*
X71391682Y-18065467D02*
G01*
X71467267Y-18079137D01*
X71537678Y-18101920D01*
X71602914Y-18133817D01*
X71668991Y-18178797D01*
X71725853Y-18231718D01*
X71773499Y-18292579D01*
X71795988Y-18329822D01*
X71828574Y-18401151D01*
X71850496Y-18476653D01*
X71861753Y-18556329D01*
X71863399Y-18602397D01*
X71861951Y-18676125D01*
X71858269Y-18729159D01*
X70910485Y-18729159D01*
X70916979Y-18803080D01*
X70938875Y-18877106D01*
X70965440Y-18928094D01*
X71011825Y-18987514D01*
X71067999Y-19034981D01*
X71110886Y-19059986D01*
X71180850Y-19086999D01*
X71255554Y-19101545D01*
X71307990Y-19104316D01*
X71383148Y-19099157D01*
X71458296Y-19081326D01*
X71530793Y-19047000D01*
X71542830Y-19039103D01*
X71600749Y-18987948D01*
X71644037Y-18924153D01*
X71670691Y-18855188D01*
X71849843Y-18855188D01*
X71824999Y-18932735D01*
X71791179Y-19002850D01*
X71748383Y-19065531D01*
X71696611Y-19120779D01*
X71662997Y-19149012D01*
X71598190Y-19190982D01*
X71526545Y-19222643D01*
X71448063Y-19243996D01*
X71375352Y-19254093D01*
X71310921Y-19256723D01*
X71230939Y-19252144D01*
X71155125Y-19238405D01*
X71083478Y-19215507D01*
X71015998Y-19183450D01*
X70954311Y-19142784D01*
X70893344Y-19087838D01*
X70846644Y-19030822D01*
X70811567Y-18974623D01*
X70779350Y-18904052D01*
X70756337Y-18827894D01*
X70742530Y-18746149D01*
X70737999Y-18670039D01*
X70737928Y-18658817D01*
X70741399Y-18582060D01*
X70742161Y-18576751D01*
X70910485Y-18576751D01*
X71690841Y-18576751D01*
X71683474Y-18498819D01*
X71661372Y-18427687D01*
X71638451Y-18384043D01*
X71589772Y-18322351D01*
X71528275Y-18274203D01*
X71495569Y-18256549D01*
X71425278Y-18230205D01*
X71350145Y-18216020D01*
X71297366Y-18213318D01*
X71219926Y-18219454D01*
X71148439Y-18237864D01*
X71075132Y-18273245D01*
X71023325Y-18311503D01*
X70968779Y-18372181D01*
X70932083Y-18443755D01*
X70914452Y-18516524D01*
X70910485Y-18576751D01*
X70742161Y-18576751D01*
X70751812Y-18509512D01*
X70772214Y-18431751D01*
X70801683Y-18359486D01*
X70810468Y-18342278D01*
X70850516Y-18278118D01*
X70897754Y-18221927D01*
X70959491Y-18168237D01*
X71013800Y-18133450D01*
X71081417Y-18101714D01*
X71153476Y-18079045D01*
X71229978Y-18065444D01*
X71310921Y-18060910D01*
X71391682Y-18065467D01*
G37*
G36*
X72537142Y-19062550D02*
G01*
X72915230Y-18072634D01*
X73095848Y-18072634D01*
X72626902Y-19245000D01*
X72444819Y-19245000D01*
X71975872Y-18072634D01*
X72158688Y-18072634D01*
X72537142Y-19062550D01*
G37*
G36*
X74420812Y-17748107D02*
G01*
X74494472Y-17759312D01*
X74570935Y-17781827D01*
X74637195Y-17814510D01*
X74685869Y-17850617D01*
X74738282Y-17907518D01*
X74775720Y-17972342D01*
X74798182Y-18045088D01*
X74805670Y-18125757D01*
X74799671Y-18200718D01*
X74778934Y-18274220D01*
X74739016Y-18343171D01*
X74729833Y-18354368D01*
X74678257Y-18406853D01*
X74614244Y-18450610D01*
X74582921Y-18462812D01*
X74655700Y-18493877D01*
X74715146Y-18542981D01*
X74754013Y-18585544D01*
X74797579Y-18648707D01*
X74826888Y-18717435D01*
X74841938Y-18791727D01*
X74844138Y-18835404D01*
X74837298Y-18912565D01*
X74816778Y-18984357D01*
X74786253Y-19044965D01*
X74740518Y-19104474D01*
X74682401Y-19154546D01*
X74618824Y-19191877D01*
X74546016Y-19219891D01*
X74473454Y-19236232D01*
X74394226Y-19244169D01*
X74356874Y-19245000D01*
X73835904Y-19245000D01*
X73835904Y-19092592D01*
X74008461Y-19092592D01*
X74346249Y-19092592D01*
X74427886Y-19086854D01*
X74505609Y-19067019D01*
X74575320Y-19028836D01*
X74586218Y-19020052D01*
X74634818Y-18963565D01*
X74663244Y-18894350D01*
X74671581Y-18820383D01*
X74662851Y-18745937D01*
X74633082Y-18675616D01*
X74582188Y-18617418D01*
X74520128Y-18577425D01*
X74445689Y-18552245D01*
X74368109Y-18542247D01*
X74340021Y-18541580D01*
X74008461Y-18541580D01*
X74008461Y-19092592D01*
X73835904Y-19092592D01*
X73835904Y-18389173D01*
X74008461Y-18389173D01*
X74336357Y-18389173D01*
X74411837Y-18383956D01*
X74483264Y-18365924D01*
X74551691Y-18327284D01*
X74556542Y-18323227D01*
X74603202Y-18266658D01*
X74628327Y-18195870D01*
X74633112Y-18140778D01*
X74622345Y-18062227D01*
X74586378Y-17992711D01*
X74556542Y-17961992D01*
X74488811Y-17922253D01*
X74416626Y-17903147D01*
X74339423Y-17896843D01*
X74330129Y-17896779D01*
X74008461Y-17896779D01*
X74008461Y-18389173D01*
X73835904Y-18389173D01*
X73835904Y-17744371D01*
X74339655Y-17744371D01*
X74420812Y-17748107D01*
G37*
G36*
X75685219Y-18065513D02*
G01*
X75761881Y-18079320D01*
X75834696Y-18102332D01*
X75903664Y-18134549D01*
X75967251Y-18175078D01*
X76023556Y-18223393D01*
X76072581Y-18279492D01*
X76114323Y-18343377D01*
X76147823Y-18413788D01*
X76171751Y-18489831D01*
X76186108Y-18571507D01*
X76190819Y-18647595D01*
X76190893Y-18658817D01*
X76187177Y-18734734D01*
X76173827Y-18816645D01*
X76150769Y-18893381D01*
X76118003Y-18964942D01*
X76113224Y-18973524D01*
X76070955Y-19037889D01*
X76021450Y-19094332D01*
X75964709Y-19142853D01*
X75900733Y-19183450D01*
X75831284Y-19215507D01*
X75758126Y-19238405D01*
X75681258Y-19252144D01*
X75600680Y-19256723D01*
X75520126Y-19252144D01*
X75443693Y-19238405D01*
X75371382Y-19215507D01*
X75303193Y-19183450D01*
X75240705Y-19142921D01*
X75185132Y-19094607D01*
X75136474Y-19038507D01*
X75094731Y-18974623D01*
X75061392Y-18904052D01*
X75037579Y-18827894D01*
X75023290Y-18746149D01*
X75018602Y-18670039D01*
X75018528Y-18658817D01*
X75191085Y-18658817D01*
X75195548Y-18737568D01*
X75210976Y-18816437D01*
X75237422Y-18886218D01*
X75247505Y-18905380D01*
X75290623Y-18968168D01*
X75347536Y-19023036D01*
X75396982Y-19054856D01*
X75469574Y-19084996D01*
X75547214Y-19101224D01*
X75601780Y-19104316D01*
X75676106Y-19098471D01*
X75752648Y-19078765D01*
X75806944Y-19054856D01*
X75872563Y-19010652D01*
X75923934Y-18957640D01*
X75959717Y-18905380D01*
X75990629Y-18838168D01*
X76010093Y-18762011D01*
X76017821Y-18685823D01*
X76018336Y-18658817D01*
X76013786Y-18580242D01*
X75998058Y-18501503D01*
X75971096Y-18431779D01*
X75960817Y-18412620D01*
X75916943Y-18349623D01*
X75859206Y-18294626D01*
X75809142Y-18262777D01*
X75736104Y-18232638D01*
X75658223Y-18216409D01*
X75603611Y-18213318D01*
X75529241Y-18219162D01*
X75452554Y-18238868D01*
X75398081Y-18262777D01*
X75332771Y-18306981D01*
X75278074Y-18365405D01*
X75247505Y-18412254D01*
X75217753Y-18479308D01*
X75199019Y-18555450D01*
X75191581Y-18631748D01*
X75191085Y-18658817D01*
X75018528Y-18658817D01*
X75022227Y-18581970D01*
X75033324Y-18509472D01*
X75055065Y-18431940D01*
X75086470Y-18360087D01*
X75095831Y-18343011D01*
X75138123Y-18279286D01*
X75187330Y-18223301D01*
X75243452Y-18175056D01*
X75306490Y-18134549D01*
X75375137Y-18102332D01*
X75447723Y-18079320D01*
X75524248Y-18065513D01*
X75604710Y-18060910D01*
X75685219Y-18065513D01*
G37*
G36*
X77005962Y-18065742D02*
G01*
X77080792Y-18080236D01*
X77158188Y-18108092D01*
X77213416Y-18138213D01*
X77274705Y-18181145D01*
X77330252Y-18232123D01*
X77366556Y-18285858D01*
X77366556Y-18072634D01*
X77539114Y-18072634D01*
X77539114Y-19245000D01*
X77366556Y-19245000D01*
X77366556Y-19027745D01*
X77320304Y-19092340D01*
X77260448Y-19144667D01*
X77211584Y-19178688D01*
X77139749Y-19216410D01*
X77069814Y-19239577D01*
X76994154Y-19252989D01*
X76923256Y-19256723D01*
X76846044Y-19252075D01*
X76772680Y-19238130D01*
X76703162Y-19214889D01*
X76637491Y-19182351D01*
X76570181Y-19135442D01*
X76511680Y-19078796D01*
X76467075Y-19020269D01*
X76438189Y-18971325D01*
X76406934Y-18900571D01*
X76384608Y-18824596D01*
X76371213Y-18743401D01*
X76366818Y-18668072D01*
X76366748Y-18656985D01*
X76539306Y-18656985D01*
X76543566Y-18730951D01*
X76558292Y-18806815D01*
X76583537Y-18876023D01*
X76593161Y-18895488D01*
X76635071Y-18959795D01*
X76686245Y-19012673D01*
X76740806Y-19050826D01*
X76808187Y-19081280D01*
X76881368Y-19099092D01*
X76952931Y-19104316D01*
X77029178Y-19097909D01*
X77100750Y-19078687D01*
X77161759Y-19050094D01*
X77222276Y-19007066D01*
X77273355Y-18953043D01*
X77311602Y-18894389D01*
X77342889Y-18820932D01*
X77360063Y-18747315D01*
X77366503Y-18667188D01*
X77366556Y-18658817D01*
X77361190Y-18578038D01*
X77345090Y-18503770D01*
X77314983Y-18429597D01*
X77311602Y-18423244D01*
X77269102Y-18359268D01*
X77217164Y-18306374D01*
X77161759Y-18267906D01*
X77094437Y-18236827D01*
X77022440Y-18218649D01*
X76952931Y-18213318D01*
X76874310Y-18219508D01*
X76801664Y-18238080D01*
X76740806Y-18265708D01*
X76676252Y-18311749D01*
X76626762Y-18365812D01*
X76593161Y-18418482D01*
X76562499Y-18491789D01*
X76545670Y-18566321D01*
X76539516Y-18639824D01*
X76539306Y-18656985D01*
X76366748Y-18656985D01*
X76370167Y-18580995D01*
X76382446Y-18499216D01*
X76403655Y-18422840D01*
X76433794Y-18351869D01*
X76438189Y-18343377D01*
X76477573Y-18279630D01*
X76530201Y-18217110D01*
X76591639Y-18164328D01*
X76637491Y-18134549D01*
X76711815Y-18098952D01*
X76782260Y-18077091D01*
X76856827Y-18064434D01*
X76925454Y-18060910D01*
X77005962Y-18065742D01*
G37*
G36*
X78026745Y-18249588D02*
G01*
X78072540Y-18186848D01*
X78131410Y-18139673D01*
X78155705Y-18123925D01*
X78225135Y-18090694D01*
X78297105Y-18071310D01*
X78378059Y-18061895D01*
X78416923Y-18060910D01*
X78416923Y-18248489D01*
X78365632Y-18248489D01*
X78292382Y-18253572D01*
X78219227Y-18271443D01*
X78149431Y-18306391D01*
X78119068Y-18329822D01*
X78070382Y-18391409D01*
X78041982Y-18465621D01*
X78028999Y-18546524D01*
X78026745Y-18604228D01*
X78026745Y-19245000D01*
X77854187Y-19245000D01*
X77854187Y-18072634D01*
X78026745Y-18072634D01*
X78026745Y-18249588D01*
G37*
G36*
X79715318Y-19245000D02*
G01*
X79542760Y-19245000D01*
X79542760Y-19028845D01*
X79497800Y-19092688D01*
X79438074Y-19144720D01*
X79388887Y-19178688D01*
X79316695Y-19216410D01*
X79246879Y-19239577D01*
X79171752Y-19252989D01*
X79101657Y-19256723D01*
X79023484Y-19252075D01*
X78949433Y-19238130D01*
X78879503Y-19214889D01*
X78813695Y-19182351D01*
X78746384Y-19135442D01*
X78687883Y-19078796D01*
X78643279Y-19020269D01*
X78614393Y-18971325D01*
X78583138Y-18900571D01*
X78560812Y-18824596D01*
X78547417Y-18743401D01*
X78543022Y-18668072D01*
X78542952Y-18656985D01*
X78715510Y-18656985D01*
X78719770Y-18730951D01*
X78734496Y-18806815D01*
X78759740Y-18876023D01*
X78769365Y-18895488D01*
X78811275Y-18959795D01*
X78862449Y-19012673D01*
X78917010Y-19050826D01*
X78984390Y-19081280D01*
X79057572Y-19099092D01*
X79129135Y-19104316D01*
X79205382Y-19097909D01*
X79276954Y-19078687D01*
X79337962Y-19050094D01*
X79398479Y-19007066D01*
X79449559Y-18953043D01*
X79487805Y-18894389D01*
X79519093Y-18820932D01*
X79536266Y-18747315D01*
X79542706Y-18667188D01*
X79542760Y-18658817D01*
X79537393Y-18578038D01*
X79521293Y-18503770D01*
X79491186Y-18429597D01*
X79487805Y-18423244D01*
X79445305Y-18359268D01*
X79393368Y-18306374D01*
X79337962Y-18267906D01*
X79270641Y-18236827D01*
X79198644Y-18218649D01*
X79129135Y-18213318D01*
X79050514Y-18219508D01*
X78977868Y-18238080D01*
X78917010Y-18265708D01*
X78852455Y-18311749D01*
X78802966Y-18365812D01*
X78769365Y-18418482D01*
X78738703Y-18491789D01*
X78721873Y-18566321D01*
X78715720Y-18639824D01*
X78715510Y-18656985D01*
X78542952Y-18656985D01*
X78546423Y-18580995D01*
X78558891Y-18499216D01*
X78580426Y-18422840D01*
X78611029Y-18351869D01*
X78615492Y-18343377D01*
X78655357Y-18279630D01*
X78708361Y-18217110D01*
X78770002Y-18164328D01*
X78815893Y-18134549D01*
X78890217Y-18098952D01*
X78960662Y-18077091D01*
X79035229Y-18064434D01*
X79103856Y-18060910D01*
X79179121Y-18065627D01*
X79259360Y-18082210D01*
X79334904Y-18110733D01*
X79382659Y-18136381D01*
X79445684Y-18178541D01*
X79503588Y-18229833D01*
X79542760Y-18285491D01*
X79542760Y-17650582D01*
X79715318Y-17650582D01*
X79715318Y-19245000D01*
G37*
D11*
X58666666Y-87454819D02*
X58666666Y-88169104D01*
X58666666Y-88169104D02*
X58619047Y-88311961D01*
X58619047Y-88311961D02*
X58523809Y-88407200D01*
X58523809Y-88407200D02*
X58380952Y-88454819D01*
X58380952Y-88454819D02*
X58285714Y-88454819D01*
X59571428Y-87788152D02*
X59571428Y-88454819D01*
X59333333Y-87407200D02*
X59095238Y-88121485D01*
X59095238Y-88121485D02*
X59714285Y-88121485D01*
X58190476Y-65954819D02*
X58190476Y-66669104D01*
X58190476Y-66669104D02*
X58142857Y-66811961D01*
X58142857Y-66811961D02*
X58047619Y-66907200D01*
X58047619Y-66907200D02*
X57904762Y-66954819D01*
X57904762Y-66954819D02*
X57809524Y-66954819D01*
X59190476Y-66954819D02*
X58619048Y-66954819D01*
X58904762Y-66954819D02*
X58904762Y-65954819D01*
X58904762Y-65954819D02*
X58809524Y-66097676D01*
X58809524Y-66097676D02*
X58714286Y-66192914D01*
X58714286Y-66192914D02*
X58619048Y-66240533D01*
X59809524Y-65954819D02*
X59904762Y-65954819D01*
X59904762Y-65954819D02*
X60000000Y-66002438D01*
X60000000Y-66002438D02*
X60047619Y-66050057D01*
X60047619Y-66050057D02*
X60095238Y-66145295D01*
X60095238Y-66145295D02*
X60142857Y-66335771D01*
X60142857Y-66335771D02*
X60142857Y-66573866D01*
X60142857Y-66573866D02*
X60095238Y-66764342D01*
X60095238Y-66764342D02*
X60047619Y-66859580D01*
X60047619Y-66859580D02*
X60000000Y-66907200D01*
X60000000Y-66907200D02*
X59904762Y-66954819D01*
X59904762Y-66954819D02*
X59809524Y-66954819D01*
X59809524Y-66954819D02*
X59714286Y-66907200D01*
X59714286Y-66907200D02*
X59666667Y-66859580D01*
X59666667Y-66859580D02*
X59619048Y-66764342D01*
X59619048Y-66764342D02*
X59571429Y-66573866D01*
X59571429Y-66573866D02*
X59571429Y-66335771D01*
X59571429Y-66335771D02*
X59619048Y-66145295D01*
X59619048Y-66145295D02*
X59666667Y-66050057D01*
X59666667Y-66050057D02*
X59714286Y-66002438D01*
X59714286Y-66002438D02*
X59809524Y-65954819D01*
X87666667Y-34407200D02*
X87809524Y-34454819D01*
X87809524Y-34454819D02*
X88047619Y-34454819D01*
X88047619Y-34454819D02*
X88142857Y-34407200D01*
X88142857Y-34407200D02*
X88190476Y-34359580D01*
X88190476Y-34359580D02*
X88238095Y-34264342D01*
X88238095Y-34264342D02*
X88238095Y-34169104D01*
X88238095Y-34169104D02*
X88190476Y-34073866D01*
X88190476Y-34073866D02*
X88142857Y-34026247D01*
X88142857Y-34026247D02*
X88047619Y-33978628D01*
X88047619Y-33978628D02*
X87857143Y-33931009D01*
X87857143Y-33931009D02*
X87761905Y-33883390D01*
X87761905Y-33883390D02*
X87714286Y-33835771D01*
X87714286Y-33835771D02*
X87666667Y-33740533D01*
X87666667Y-33740533D02*
X87666667Y-33645295D01*
X87666667Y-33645295D02*
X87714286Y-33550057D01*
X87714286Y-33550057D02*
X87761905Y-33502438D01*
X87761905Y-33502438D02*
X87857143Y-33454819D01*
X87857143Y-33454819D02*
X88095238Y-33454819D01*
X88095238Y-33454819D02*
X88238095Y-33502438D01*
X88571429Y-33454819D02*
X88809524Y-34454819D01*
X88809524Y-34454819D02*
X89000000Y-33740533D01*
X89000000Y-33740533D02*
X89190476Y-34454819D01*
X89190476Y-34454819D02*
X89428572Y-33454819D01*
X90333333Y-34454819D02*
X89761905Y-34454819D01*
X90047619Y-34454819D02*
X90047619Y-33454819D01*
X90047619Y-33454819D02*
X89952381Y-33597676D01*
X89952381Y-33597676D02*
X89857143Y-33692914D01*
X89857143Y-33692914D02*
X89761905Y-33740533D01*
X62954819Y-57308333D02*
X63669104Y-57308333D01*
X63669104Y-57308333D02*
X63811961Y-57355952D01*
X63811961Y-57355952D02*
X63907200Y-57451190D01*
X63907200Y-57451190D02*
X63954819Y-57594047D01*
X63954819Y-57594047D02*
X63954819Y-57689285D01*
X62954819Y-56927380D02*
X62954819Y-56308333D01*
X62954819Y-56308333D02*
X63335771Y-56641666D01*
X63335771Y-56641666D02*
X63335771Y-56498809D01*
X63335771Y-56498809D02*
X63383390Y-56403571D01*
X63383390Y-56403571D02*
X63431009Y-56355952D01*
X63431009Y-56355952D02*
X63526247Y-56308333D01*
X63526247Y-56308333D02*
X63764342Y-56308333D01*
X63764342Y-56308333D02*
X63859580Y-56355952D01*
X63859580Y-56355952D02*
X63907200Y-56403571D01*
X63907200Y-56403571D02*
X63954819Y-56498809D01*
X63954819Y-56498809D02*
X63954819Y-56784523D01*
X63954819Y-56784523D02*
X63907200Y-56879761D01*
X63907200Y-56879761D02*
X63859580Y-56927380D01*
X53784819Y-30461904D02*
X54594342Y-30461904D01*
X54594342Y-30461904D02*
X54689580Y-30414285D01*
X54689580Y-30414285D02*
X54737200Y-30366666D01*
X54737200Y-30366666D02*
X54784819Y-30271428D01*
X54784819Y-30271428D02*
X54784819Y-30080952D01*
X54784819Y-30080952D02*
X54737200Y-29985714D01*
X54737200Y-29985714D02*
X54689580Y-29938095D01*
X54689580Y-29938095D02*
X54594342Y-29890476D01*
X54594342Y-29890476D02*
X53784819Y-29890476D01*
X53880057Y-29461904D02*
X53832438Y-29414285D01*
X53832438Y-29414285D02*
X53784819Y-29319047D01*
X53784819Y-29319047D02*
X53784819Y-29080952D01*
X53784819Y-29080952D02*
X53832438Y-28985714D01*
X53832438Y-28985714D02*
X53880057Y-28938095D01*
X53880057Y-28938095D02*
X53975295Y-28890476D01*
X53975295Y-28890476D02*
X54070533Y-28890476D01*
X54070533Y-28890476D02*
X54213390Y-28938095D01*
X54213390Y-28938095D02*
X54784819Y-29509523D01*
X54784819Y-29509523D02*
X54784819Y-28890476D01*
X58706666Y-89954819D02*
X58706666Y-90669104D01*
X58706666Y-90669104D02*
X58659047Y-90811961D01*
X58659047Y-90811961D02*
X58563809Y-90907200D01*
X58563809Y-90907200D02*
X58420952Y-90954819D01*
X58420952Y-90954819D02*
X58325714Y-90954819D01*
X59659047Y-89954819D02*
X59182857Y-89954819D01*
X59182857Y-89954819D02*
X59135238Y-90431009D01*
X59135238Y-90431009D02*
X59182857Y-90383390D01*
X59182857Y-90383390D02*
X59278095Y-90335771D01*
X59278095Y-90335771D02*
X59516190Y-90335771D01*
X59516190Y-90335771D02*
X59611428Y-90383390D01*
X59611428Y-90383390D02*
X59659047Y-90431009D01*
X59659047Y-90431009D02*
X59706666Y-90526247D01*
X59706666Y-90526247D02*
X59706666Y-90764342D01*
X59706666Y-90764342D02*
X59659047Y-90859580D01*
X59659047Y-90859580D02*
X59611428Y-90907200D01*
X59611428Y-90907200D02*
X59516190Y-90954819D01*
X59516190Y-90954819D02*
X59278095Y-90954819D01*
X59278095Y-90954819D02*
X59182857Y-90907200D01*
X59182857Y-90907200D02*
X59135238Y-90859580D01*
X57666666Y-78954819D02*
X57666666Y-79669104D01*
X57666666Y-79669104D02*
X57619047Y-79811961D01*
X57619047Y-79811961D02*
X57523809Y-79907200D01*
X57523809Y-79907200D02*
X57380952Y-79954819D01*
X57380952Y-79954819D02*
X57285714Y-79954819D01*
X58666666Y-79954819D02*
X58095238Y-79954819D01*
X58380952Y-79954819D02*
X58380952Y-78954819D01*
X58380952Y-78954819D02*
X58285714Y-79097676D01*
X58285714Y-79097676D02*
X58190476Y-79192914D01*
X58190476Y-79192914D02*
X58095238Y-79240533D01*
X62954819Y-45833333D02*
X63669104Y-45833333D01*
X63669104Y-45833333D02*
X63811961Y-45880952D01*
X63811961Y-45880952D02*
X63907200Y-45976190D01*
X63907200Y-45976190D02*
X63954819Y-46119047D01*
X63954819Y-46119047D02*
X63954819Y-46214285D01*
X63383390Y-45214285D02*
X63335771Y-45309523D01*
X63335771Y-45309523D02*
X63288152Y-45357142D01*
X63288152Y-45357142D02*
X63192914Y-45404761D01*
X63192914Y-45404761D02*
X63145295Y-45404761D01*
X63145295Y-45404761D02*
X63050057Y-45357142D01*
X63050057Y-45357142D02*
X63002438Y-45309523D01*
X63002438Y-45309523D02*
X62954819Y-45214285D01*
X62954819Y-45214285D02*
X62954819Y-45023809D01*
X62954819Y-45023809D02*
X63002438Y-44928571D01*
X63002438Y-44928571D02*
X63050057Y-44880952D01*
X63050057Y-44880952D02*
X63145295Y-44833333D01*
X63145295Y-44833333D02*
X63192914Y-44833333D01*
X63192914Y-44833333D02*
X63288152Y-44880952D01*
X63288152Y-44880952D02*
X63335771Y-44928571D01*
X63335771Y-44928571D02*
X63383390Y-45023809D01*
X63383390Y-45023809D02*
X63383390Y-45214285D01*
X63383390Y-45214285D02*
X63431009Y-45309523D01*
X63431009Y-45309523D02*
X63478628Y-45357142D01*
X63478628Y-45357142D02*
X63573866Y-45404761D01*
X63573866Y-45404761D02*
X63764342Y-45404761D01*
X63764342Y-45404761D02*
X63859580Y-45357142D01*
X63859580Y-45357142D02*
X63907200Y-45309523D01*
X63907200Y-45309523D02*
X63954819Y-45214285D01*
X63954819Y-45214285D02*
X63954819Y-45023809D01*
X63954819Y-45023809D02*
X63907200Y-44928571D01*
X63907200Y-44928571D02*
X63859580Y-44880952D01*
X63859580Y-44880952D02*
X63764342Y-44833333D01*
X63764342Y-44833333D02*
X63573866Y-44833333D01*
X63573866Y-44833333D02*
X63478628Y-44880952D01*
X63478628Y-44880952D02*
X63431009Y-44928571D01*
X63431009Y-44928571D02*
X63383390Y-45023809D01*
X76951905Y-33954819D02*
X76951905Y-32954819D01*
X76951905Y-32954819D02*
X77190000Y-32954819D01*
X77190000Y-32954819D02*
X77332857Y-33002438D01*
X77332857Y-33002438D02*
X77428095Y-33097676D01*
X77428095Y-33097676D02*
X77475714Y-33192914D01*
X77475714Y-33192914D02*
X77523333Y-33383390D01*
X77523333Y-33383390D02*
X77523333Y-33526247D01*
X77523333Y-33526247D02*
X77475714Y-33716723D01*
X77475714Y-33716723D02*
X77428095Y-33811961D01*
X77428095Y-33811961D02*
X77332857Y-33907200D01*
X77332857Y-33907200D02*
X77190000Y-33954819D01*
X77190000Y-33954819D02*
X76951905Y-33954819D01*
X78475714Y-33954819D02*
X77904286Y-33954819D01*
X78190000Y-33954819D02*
X78190000Y-32954819D01*
X78190000Y-32954819D02*
X78094762Y-33097676D01*
X78094762Y-33097676D02*
X77999524Y-33192914D01*
X77999524Y-33192914D02*
X77904286Y-33240533D01*
X81666667Y-29957200D02*
X81809524Y-30004819D01*
X81809524Y-30004819D02*
X82047619Y-30004819D01*
X82047619Y-30004819D02*
X82142857Y-29957200D01*
X82142857Y-29957200D02*
X82190476Y-29909580D01*
X82190476Y-29909580D02*
X82238095Y-29814342D01*
X82238095Y-29814342D02*
X82238095Y-29719104D01*
X82238095Y-29719104D02*
X82190476Y-29623866D01*
X82190476Y-29623866D02*
X82142857Y-29576247D01*
X82142857Y-29576247D02*
X82047619Y-29528628D01*
X82047619Y-29528628D02*
X81857143Y-29481009D01*
X81857143Y-29481009D02*
X81761905Y-29433390D01*
X81761905Y-29433390D02*
X81714286Y-29385771D01*
X81714286Y-29385771D02*
X81666667Y-29290533D01*
X81666667Y-29290533D02*
X81666667Y-29195295D01*
X81666667Y-29195295D02*
X81714286Y-29100057D01*
X81714286Y-29100057D02*
X81761905Y-29052438D01*
X81761905Y-29052438D02*
X81857143Y-29004819D01*
X81857143Y-29004819D02*
X82095238Y-29004819D01*
X82095238Y-29004819D02*
X82238095Y-29052438D01*
X82571429Y-29004819D02*
X82809524Y-30004819D01*
X82809524Y-30004819D02*
X83000000Y-29290533D01*
X83000000Y-29290533D02*
X83190476Y-30004819D01*
X83190476Y-30004819D02*
X83428572Y-29004819D01*
X83761905Y-29100057D02*
X83809524Y-29052438D01*
X83809524Y-29052438D02*
X83904762Y-29004819D01*
X83904762Y-29004819D02*
X84142857Y-29004819D01*
X84142857Y-29004819D02*
X84238095Y-29052438D01*
X84238095Y-29052438D02*
X84285714Y-29100057D01*
X84285714Y-29100057D02*
X84333333Y-29195295D01*
X84333333Y-29195295D02*
X84333333Y-29290533D01*
X84333333Y-29290533D02*
X84285714Y-29433390D01*
X84285714Y-29433390D02*
X83714286Y-30004819D01*
X83714286Y-30004819D02*
X84333333Y-30004819D01*
X73666666Y-20954819D02*
X73666666Y-21669104D01*
X73666666Y-21669104D02*
X73619047Y-21811961D01*
X73619047Y-21811961D02*
X73523809Y-21907200D01*
X73523809Y-21907200D02*
X73380952Y-21954819D01*
X73380952Y-21954819D02*
X73285714Y-21954819D01*
X74571428Y-20954819D02*
X74380952Y-20954819D01*
X74380952Y-20954819D02*
X74285714Y-21002438D01*
X74285714Y-21002438D02*
X74238095Y-21050057D01*
X74238095Y-21050057D02*
X74142857Y-21192914D01*
X74142857Y-21192914D02*
X74095238Y-21383390D01*
X74095238Y-21383390D02*
X74095238Y-21764342D01*
X74095238Y-21764342D02*
X74142857Y-21859580D01*
X74142857Y-21859580D02*
X74190476Y-21907200D01*
X74190476Y-21907200D02*
X74285714Y-21954819D01*
X74285714Y-21954819D02*
X74476190Y-21954819D01*
X74476190Y-21954819D02*
X74571428Y-21907200D01*
X74571428Y-21907200D02*
X74619047Y-21859580D01*
X74619047Y-21859580D02*
X74666666Y-21764342D01*
X74666666Y-21764342D02*
X74666666Y-21526247D01*
X74666666Y-21526247D02*
X74619047Y-21431009D01*
X74619047Y-21431009D02*
X74571428Y-21383390D01*
X74571428Y-21383390D02*
X74476190Y-21335771D01*
X74476190Y-21335771D02*
X74285714Y-21335771D01*
X74285714Y-21335771D02*
X74190476Y-21383390D01*
X74190476Y-21383390D02*
X74142857Y-21431009D01*
X74142857Y-21431009D02*
X74095238Y-21526247D01*
X72857143Y-26439104D02*
X73333333Y-26439104D01*
X72761905Y-26724819D02*
X73095238Y-25724819D01*
X73095238Y-25724819D02*
X73428571Y-26724819D01*
X73761905Y-26724819D02*
X73761905Y-25724819D01*
X73761905Y-25724819D02*
X74333333Y-26724819D01*
X74333333Y-26724819D02*
X74333333Y-25724819D01*
X74666667Y-25724819D02*
X75238095Y-25724819D01*
X74952381Y-26724819D02*
X74952381Y-25724819D01*
X58666666Y-71954819D02*
X58666666Y-72669104D01*
X58666666Y-72669104D02*
X58619047Y-72811961D01*
X58619047Y-72811961D02*
X58523809Y-72907200D01*
X58523809Y-72907200D02*
X58380952Y-72954819D01*
X58380952Y-72954819D02*
X58285714Y-72954819D01*
X59190476Y-72954819D02*
X59380952Y-72954819D01*
X59380952Y-72954819D02*
X59476190Y-72907200D01*
X59476190Y-72907200D02*
X59523809Y-72859580D01*
X59523809Y-72859580D02*
X59619047Y-72716723D01*
X59619047Y-72716723D02*
X59666666Y-72526247D01*
X59666666Y-72526247D02*
X59666666Y-72145295D01*
X59666666Y-72145295D02*
X59619047Y-72050057D01*
X59619047Y-72050057D02*
X59571428Y-72002438D01*
X59571428Y-72002438D02*
X59476190Y-71954819D01*
X59476190Y-71954819D02*
X59285714Y-71954819D01*
X59285714Y-71954819D02*
X59190476Y-72002438D01*
X59190476Y-72002438D02*
X59142857Y-72050057D01*
X59142857Y-72050057D02*
X59095238Y-72145295D01*
X59095238Y-72145295D02*
X59095238Y-72383390D01*
X59095238Y-72383390D02*
X59142857Y-72478628D01*
X59142857Y-72478628D02*
X59190476Y-72526247D01*
X59190476Y-72526247D02*
X59285714Y-72573866D01*
X59285714Y-72573866D02*
X59476190Y-72573866D01*
X59476190Y-72573866D02*
X59571428Y-72526247D01*
X59571428Y-72526247D02*
X59619047Y-72478628D01*
X59619047Y-72478628D02*
X59666666Y-72383390D01*
X68408626Y-38008567D02*
X68408626Y-38818403D01*
X68408626Y-38818403D02*
X68456263Y-38913678D01*
X68456263Y-38913678D02*
X68503901Y-38961316D01*
X68503901Y-38961316D02*
X68599175Y-39008953D01*
X68599175Y-39008953D02*
X68789725Y-39008953D01*
X68789725Y-39008953D02*
X68885000Y-38961316D01*
X68885000Y-38961316D02*
X68932637Y-38913678D01*
X68932637Y-38913678D02*
X68980275Y-38818403D01*
X68980275Y-38818403D02*
X68980275Y-38008567D01*
X69980660Y-39008953D02*
X69409011Y-39008953D01*
X69694836Y-39008953D02*
X69694836Y-38008567D01*
X69694836Y-38008567D02*
X69599561Y-38151479D01*
X69599561Y-38151479D02*
X69504286Y-38246754D01*
X69504286Y-38246754D02*
X69409011Y-38294392D01*
X62954819Y-51333333D02*
X63669104Y-51333333D01*
X63669104Y-51333333D02*
X63811961Y-51380952D01*
X63811961Y-51380952D02*
X63907200Y-51476190D01*
X63907200Y-51476190D02*
X63954819Y-51619047D01*
X63954819Y-51619047D02*
X63954819Y-51714285D01*
X62954819Y-50952380D02*
X62954819Y-50285714D01*
X62954819Y-50285714D02*
X63954819Y-50714285D01*
X85333333Y-39324819D02*
X85000000Y-38848628D01*
X84761905Y-39324819D02*
X84761905Y-38324819D01*
X84761905Y-38324819D02*
X85142857Y-38324819D01*
X85142857Y-38324819D02*
X85238095Y-38372438D01*
X85238095Y-38372438D02*
X85285714Y-38420057D01*
X85285714Y-38420057D02*
X85333333Y-38515295D01*
X85333333Y-38515295D02*
X85333333Y-38658152D01*
X85333333Y-38658152D02*
X85285714Y-38753390D01*
X85285714Y-38753390D02*
X85238095Y-38801009D01*
X85238095Y-38801009D02*
X85142857Y-38848628D01*
X85142857Y-38848628D02*
X84761905Y-38848628D01*
X86285714Y-39324819D02*
X85714286Y-39324819D01*
X86000000Y-39324819D02*
X86000000Y-38324819D01*
X86000000Y-38324819D02*
X85904762Y-38467676D01*
X85904762Y-38467676D02*
X85809524Y-38562914D01*
X85809524Y-38562914D02*
X85714286Y-38610533D01*
X89454819Y-27833333D02*
X90169104Y-27833333D01*
X90169104Y-27833333D02*
X90311961Y-27880952D01*
X90311961Y-27880952D02*
X90407200Y-27976190D01*
X90407200Y-27976190D02*
X90454819Y-28119047D01*
X90454819Y-28119047D02*
X90454819Y-28214285D01*
X89550057Y-27404761D02*
X89502438Y-27357142D01*
X89502438Y-27357142D02*
X89454819Y-27261904D01*
X89454819Y-27261904D02*
X89454819Y-27023809D01*
X89454819Y-27023809D02*
X89502438Y-26928571D01*
X89502438Y-26928571D02*
X89550057Y-26880952D01*
X89550057Y-26880952D02*
X89645295Y-26833333D01*
X89645295Y-26833333D02*
X89740533Y-26833333D01*
X89740533Y-26833333D02*
X89883390Y-26880952D01*
X89883390Y-26880952D02*
X90454819Y-27452380D01*
X90454819Y-27452380D02*
X90454819Y-26833333D01*
D12*
%TO.C,G\u002A\u002A\u002A*%
G36*
X75170285Y-67107699D02*
G01*
X75170285Y-69366128D01*
X72911856Y-69366128D01*
X70653426Y-69366128D01*
X70653426Y-68720863D01*
X71298692Y-68720863D01*
X72911856Y-68720863D01*
X74525020Y-68720863D01*
X74525020Y-67107699D01*
X74525020Y-65494535D01*
X72911856Y-65494535D01*
X71298692Y-65494535D01*
X71298692Y-67107699D01*
X71298692Y-68720863D01*
X70653426Y-68720863D01*
X70653426Y-67107699D01*
X70653426Y-64849269D01*
X72911856Y-64849269D01*
X75170285Y-64849269D01*
X75170285Y-67107699D01*
G37*
G36*
X77106082Y-64204003D02*
G01*
X77106082Y-64849269D01*
X77428715Y-64849269D01*
X77751348Y-64849269D01*
X77751348Y-65171902D01*
X77751348Y-65494535D01*
X77428715Y-65494535D01*
X77106082Y-65494535D01*
X77106082Y-65817167D01*
X77106082Y-66139800D01*
X77428715Y-66139800D01*
X77751348Y-66139800D01*
X77751348Y-65817167D01*
X77751348Y-65494535D01*
X78073980Y-65494535D01*
X78396613Y-65494535D01*
X78396613Y-65171902D01*
X78396613Y-64849269D01*
X79041879Y-64849269D01*
X79687144Y-64849269D01*
X79687144Y-65171902D01*
X79687144Y-65494535D01*
X79364512Y-65494535D01*
X79041879Y-65494535D01*
X79041879Y-65817167D01*
X79041879Y-66139800D01*
X78396613Y-66139800D01*
X77751348Y-66139800D01*
X77751348Y-66462433D01*
X77751348Y-66785066D01*
X77106082Y-66785066D01*
X76460816Y-66785066D01*
X76460816Y-67430331D01*
X76460816Y-68075597D01*
X76783449Y-68075597D01*
X77106082Y-68075597D01*
X77106082Y-67752964D01*
X77106082Y-67430331D01*
X77428715Y-67430331D01*
X77751348Y-67430331D01*
X77751348Y-67107699D01*
X77751348Y-66785066D01*
X78073980Y-66785066D01*
X78396613Y-66785066D01*
X78396613Y-67107699D01*
X78396613Y-67430331D01*
X78073980Y-67430331D01*
X77751348Y-67430331D01*
X77751348Y-67752964D01*
X77751348Y-68075597D01*
X77428715Y-68075597D01*
X77106082Y-68075597D01*
X77106082Y-68398230D01*
X77106082Y-68720863D01*
X77428715Y-68720863D01*
X77751348Y-68720863D01*
X77751348Y-69043495D01*
X77751348Y-69366128D01*
X76783449Y-69366128D01*
X75815551Y-69366128D01*
X75815551Y-67752964D01*
X75815551Y-66139800D01*
X76138184Y-66139800D01*
X76460816Y-66139800D01*
X76460816Y-65817167D01*
X76460816Y-65494535D01*
X76138184Y-65494535D01*
X75815551Y-65494535D01*
X75815551Y-64849269D01*
X75815551Y-64204003D01*
X75170285Y-64204003D01*
X74525020Y-64204003D01*
X74525020Y-63881371D01*
X74525020Y-63558738D01*
X75815551Y-63558738D01*
X77106082Y-63558738D01*
X77106082Y-64204003D01*
G37*
G36*
X84204003Y-50976059D02*
G01*
X84204003Y-51298692D01*
X82913472Y-51298692D01*
X81622941Y-51298692D01*
X81622941Y-51621324D01*
X81622941Y-51943957D01*
X80977676Y-51943957D01*
X80332410Y-51943957D01*
X80332410Y-52266590D01*
X80332410Y-52589223D01*
X81300308Y-52589223D01*
X82268207Y-52589223D01*
X82268207Y-52266590D01*
X82268207Y-51943957D01*
X82590839Y-51943957D01*
X82913472Y-51943957D01*
X82913472Y-52266590D01*
X82913472Y-52589223D01*
X83236105Y-52589223D01*
X83558738Y-52589223D01*
X83558738Y-52266590D01*
X83558738Y-51943957D01*
X83881371Y-51943957D01*
X84204003Y-51943957D01*
X84204003Y-52266590D01*
X84204003Y-52589223D01*
X83881371Y-52589223D01*
X83558738Y-52589223D01*
X83558738Y-52911856D01*
X83558738Y-53234488D01*
X83881371Y-53234488D01*
X84204003Y-53234488D01*
X84204003Y-54202387D01*
X84204003Y-55170285D01*
X83881371Y-55170285D01*
X83558738Y-55170285D01*
X83558738Y-54525020D01*
X83558738Y-53879754D01*
X83236105Y-53879754D01*
X82913472Y-53879754D01*
X82913472Y-54525020D01*
X82913472Y-55170285D01*
X82590839Y-55170285D01*
X82268207Y-55170285D01*
X82268207Y-54847652D01*
X82268207Y-54525020D01*
X81945574Y-54525020D01*
X81622941Y-54525020D01*
X81622941Y-54847652D01*
X81622941Y-55170285D01*
X81300308Y-55170285D01*
X80977676Y-55170285D01*
X80977676Y-54847652D01*
X80977676Y-54525020D01*
X80655043Y-54525020D01*
X80332410Y-54525020D01*
X80332410Y-54847652D01*
X80332410Y-55170285D01*
X80009777Y-55170285D01*
X79687144Y-55170285D01*
X79687144Y-54847652D01*
X79687144Y-54525020D01*
X79364512Y-54525020D01*
X79041879Y-54525020D01*
X79041879Y-54847652D01*
X79041879Y-55170285D01*
X78719246Y-55170285D01*
X78396613Y-55170285D01*
X78396613Y-55815551D01*
X78396613Y-56460816D01*
X78719246Y-56460816D01*
X79041879Y-56460816D01*
X79041879Y-56138184D01*
X79041879Y-55815551D01*
X80655043Y-55815551D01*
X82268207Y-55815551D01*
X82268207Y-56138184D01*
X82268207Y-56460816D01*
X83236105Y-56460816D01*
X84204003Y-56460816D01*
X84204003Y-56138184D01*
X84204003Y-55815551D01*
X84526636Y-55815551D01*
X84849269Y-55815551D01*
X84849269Y-56138184D01*
X84849269Y-56460816D01*
X85171902Y-56460816D01*
X85494535Y-56460816D01*
X85494535Y-56138184D01*
X85494535Y-55815551D01*
X85817167Y-55815551D01*
X86139800Y-55815551D01*
X86139800Y-56138184D01*
X86139800Y-56460816D01*
X86462433Y-56460816D01*
X86785066Y-56460816D01*
X86785066Y-56138184D01*
X86785066Y-55815551D01*
X87107699Y-55815551D01*
X87430331Y-55815551D01*
X87430331Y-56138184D01*
X87430331Y-56460816D01*
X87107699Y-56460816D01*
X86785066Y-56460816D01*
X86785066Y-57106082D01*
X86785066Y-57751348D01*
X86462433Y-57751348D01*
X86139800Y-57751348D01*
X86139800Y-57428715D01*
X86139800Y-57106082D01*
X85494535Y-57106082D01*
X84849269Y-57106082D01*
X84849269Y-56783449D01*
X84849269Y-56460816D01*
X84526636Y-56460816D01*
X84204003Y-56460816D01*
X84204003Y-57751348D01*
X84204003Y-59041879D01*
X85494535Y-59041879D01*
X86785066Y-59041879D01*
X86785066Y-58396613D01*
X86785066Y-57751348D01*
X87107699Y-57751348D01*
X87430331Y-57751348D01*
X87430331Y-58073980D01*
X87430331Y-58396613D01*
X87752964Y-58396613D01*
X88075597Y-58396613D01*
X88075597Y-58073980D01*
X88075597Y-57751348D01*
X88398230Y-57751348D01*
X88720863Y-57751348D01*
X88720863Y-58073980D01*
X88720863Y-58396613D01*
X88398230Y-58396613D01*
X88075597Y-58396613D01*
X88075597Y-58719246D01*
X88075597Y-59041879D01*
X87430331Y-59041879D01*
X86785066Y-59041879D01*
X86785066Y-59364512D01*
X86785066Y-59687144D01*
X87430331Y-59687144D01*
X88075597Y-59687144D01*
X88075597Y-60009777D01*
X88075597Y-60332410D01*
X87430331Y-60332410D01*
X86785066Y-60332410D01*
X86785066Y-60655043D01*
X86785066Y-60977676D01*
X86462433Y-60977676D01*
X86139800Y-60977676D01*
X86139800Y-61300308D01*
X86139800Y-61622941D01*
X86462433Y-61622941D01*
X86785066Y-61622941D01*
X86785066Y-61300308D01*
X86785066Y-60977676D01*
X87430331Y-60977676D01*
X88075597Y-60977676D01*
X88075597Y-60655043D01*
X88075597Y-60332410D01*
X88398230Y-60332410D01*
X88720863Y-60332410D01*
X88720863Y-60655043D01*
X88720863Y-60977676D01*
X88398230Y-60977676D01*
X88075597Y-60977676D01*
X88075597Y-61945574D01*
X88075597Y-62913472D01*
X87752964Y-62913472D01*
X87430331Y-62913472D01*
X87430331Y-62268207D01*
X87430331Y-61622941D01*
X87107699Y-61622941D01*
X86785066Y-61622941D01*
X86785066Y-62268207D01*
X86785066Y-62913472D01*
X86139800Y-62913472D01*
X85494535Y-62913472D01*
X85494535Y-63236105D01*
X85494535Y-63558738D01*
X86139800Y-63558738D01*
X86785066Y-63558738D01*
X86785066Y-63881371D01*
X86785066Y-64204003D01*
X87107699Y-64204003D01*
X87430331Y-64204003D01*
X87430331Y-63881371D01*
X87430331Y-63558738D01*
X87752964Y-63558738D01*
X88075597Y-63558738D01*
X88075597Y-63236105D01*
X88075597Y-62913472D01*
X88398230Y-62913472D01*
X88720863Y-62913472D01*
X88720863Y-63236105D01*
X88720863Y-63558738D01*
X89043495Y-63558738D01*
X89366128Y-63558738D01*
X89366128Y-64204003D01*
X89366128Y-64849269D01*
X88720863Y-64849269D01*
X88075597Y-64849269D01*
X88075597Y-65171902D01*
X88075597Y-65494535D01*
X87430331Y-65494535D01*
X86785066Y-65494535D01*
X86785066Y-66139800D01*
X86785066Y-66785066D01*
X85494535Y-66785066D01*
X84204003Y-66785066D01*
X84204003Y-67107699D01*
X84204003Y-67430331D01*
X85494535Y-67430331D01*
X86785066Y-67430331D01*
X86785066Y-67107699D01*
X86785066Y-66785066D01*
X87107699Y-66785066D01*
X87430331Y-66785066D01*
X88075597Y-66785066D01*
X88398230Y-66785066D01*
X88720863Y-66785066D01*
X88720863Y-66462433D01*
X88720863Y-66139800D01*
X88398230Y-66139800D01*
X88075597Y-66139800D01*
X88075597Y-66462433D01*
X88075597Y-66785066D01*
X87430331Y-66785066D01*
X87430331Y-66462433D01*
X87430331Y-66139800D01*
X87752964Y-66139800D01*
X88075597Y-66139800D01*
X88075597Y-65817167D01*
X88075597Y-65494535D01*
X88720863Y-65494535D01*
X89366128Y-65494535D01*
X89366128Y-66462433D01*
X89366128Y-67430331D01*
X89043495Y-67430331D01*
X88720863Y-67430331D01*
X88720863Y-68075597D01*
X88720863Y-68720863D01*
X88398230Y-68720863D01*
X88075597Y-68720863D01*
X88075597Y-69043495D01*
X88075597Y-69366128D01*
X87752964Y-69366128D01*
X87430331Y-69366128D01*
X87430331Y-69043495D01*
X87430331Y-68720863D01*
X87752964Y-68720863D01*
X88075597Y-68720863D01*
X88075597Y-68398230D01*
X88075597Y-68075597D01*
X87752964Y-68075597D01*
X87430331Y-68075597D01*
X87430331Y-68398230D01*
X87430331Y-68720863D01*
X87107699Y-68720863D01*
X86785066Y-68720863D01*
X86785066Y-69043495D01*
X86785066Y-69366128D01*
X85817167Y-69366128D01*
X84849269Y-69366128D01*
X84849269Y-69043495D01*
X84849269Y-68720863D01*
X85171902Y-68720863D01*
X85494535Y-68720863D01*
X86139800Y-68720863D01*
X86462433Y-68720863D01*
X86785066Y-68720863D01*
X86785066Y-68398230D01*
X86785066Y-68075597D01*
X86462433Y-68075597D01*
X86139800Y-68075597D01*
X86139800Y-68398230D01*
X86139800Y-68720863D01*
X85494535Y-68720863D01*
X85494535Y-68398230D01*
X85494535Y-68075597D01*
X85171902Y-68075597D01*
X84849269Y-68075597D01*
X84849269Y-68398230D01*
X84849269Y-68720863D01*
X84204003Y-68720863D01*
X83558738Y-68720863D01*
X83558738Y-69043495D01*
X83558738Y-69366128D01*
X82590839Y-69366128D01*
X81622941Y-69366128D01*
X81622941Y-69043495D01*
X81622941Y-68720863D01*
X81300308Y-68720863D01*
X80977676Y-68720863D01*
X80977676Y-68398230D01*
X80977676Y-68075597D01*
X80655043Y-68075597D01*
X80332410Y-68075597D01*
X80332410Y-68720863D01*
X80332410Y-69366128D01*
X79364512Y-69366128D01*
X78396613Y-69366128D01*
X78396613Y-68720863D01*
X79041879Y-68720863D01*
X79364512Y-68720863D01*
X79687144Y-68720863D01*
X79687144Y-68398230D01*
X79687144Y-68075597D01*
X79364512Y-68075597D01*
X79041879Y-68075597D01*
X79041879Y-68398230D01*
X79041879Y-68720863D01*
X78396613Y-68720863D01*
X78396613Y-68398230D01*
X78396613Y-68075597D01*
X78719246Y-68075597D01*
X79041879Y-68075597D01*
X79041879Y-67430331D01*
X79687144Y-67430331D01*
X80009777Y-67430331D01*
X80332410Y-67430331D01*
X80332410Y-67107699D01*
X80332410Y-66785066D01*
X80009777Y-66785066D01*
X79687144Y-66785066D01*
X79687144Y-67107699D01*
X79687144Y-67430331D01*
X79041879Y-67430331D01*
X79041879Y-67107699D01*
X79041879Y-66462433D01*
X80977676Y-66462433D01*
X80977676Y-66785066D01*
X81300308Y-66785066D01*
X81622941Y-66785066D01*
X81622941Y-67752964D01*
X81622941Y-68720863D01*
X81945574Y-68720863D01*
X82268207Y-68720863D01*
X82913472Y-68720863D01*
X83236105Y-68720863D01*
X83558738Y-68720863D01*
X83558738Y-68398230D01*
X83558738Y-68075597D01*
X83236105Y-68075597D01*
X82913472Y-68075597D01*
X82913472Y-68398230D01*
X82913472Y-68720863D01*
X82268207Y-68720863D01*
X82268207Y-68398230D01*
X82268207Y-68075597D01*
X82268207Y-67430331D01*
X82590839Y-67430331D01*
X82913472Y-67430331D01*
X82913472Y-67107699D01*
X82913472Y-66785066D01*
X83236105Y-66785066D01*
X83558738Y-66785066D01*
X83558738Y-66462433D01*
X83558738Y-66139800D01*
X84204003Y-66139800D01*
X85171902Y-66139800D01*
X86139800Y-66139800D01*
X86139800Y-65171902D01*
X86139800Y-64204003D01*
X85171902Y-64204003D01*
X84204003Y-64204003D01*
X84204003Y-65171902D01*
X84204003Y-66139800D01*
X83558738Y-66139800D01*
X83236105Y-66139800D01*
X82913472Y-66139800D01*
X82913472Y-66462433D01*
X82913472Y-66785066D01*
X82268207Y-66785066D01*
X81622941Y-66785066D01*
X81622941Y-66462433D01*
X81622941Y-66139800D01*
X81945574Y-66139800D01*
X82268207Y-66139800D01*
X82268207Y-65494535D01*
X82268207Y-65171902D01*
X82268207Y-64849269D01*
X82913472Y-64849269D01*
X83558738Y-64849269D01*
X83558738Y-64526636D01*
X83558738Y-64204003D01*
X82590839Y-64204003D01*
X81622941Y-64204003D01*
X81622941Y-65171902D01*
X81622941Y-66139800D01*
X81300308Y-66139800D01*
X80977676Y-66139800D01*
X80977676Y-66462433D01*
X79041879Y-66462433D01*
X79041879Y-66139800D01*
X79687144Y-66139800D01*
X80332410Y-66139800D01*
X80332410Y-65171902D01*
X80332410Y-64204003D01*
X80009777Y-64204003D01*
X79687144Y-64204003D01*
X79687144Y-63881371D01*
X79687144Y-63558738D01*
X81622941Y-63558738D01*
X83558738Y-63558738D01*
X83558738Y-62913472D01*
X84204003Y-62913472D01*
X84526636Y-62913472D01*
X84849269Y-62913472D01*
X84849269Y-62590839D01*
X84849269Y-62268207D01*
X84526636Y-62268207D01*
X84204003Y-62268207D01*
X84204003Y-62590839D01*
X84204003Y-62913472D01*
X83558738Y-62913472D01*
X83558738Y-62590839D01*
X83558738Y-62268207D01*
X83881371Y-62268207D01*
X84204003Y-62268207D01*
X84204003Y-61622941D01*
X84849269Y-61622941D01*
X85171902Y-61622941D01*
X85494535Y-61622941D01*
X85494535Y-61300308D01*
X85494535Y-60977676D01*
X85171902Y-60977676D01*
X84849269Y-60977676D01*
X84849269Y-61300308D01*
X84849269Y-61622941D01*
X84204003Y-61622941D01*
X84204003Y-61300308D01*
X84204003Y-60977676D01*
X83881371Y-60977676D01*
X83558738Y-60977676D01*
X83558738Y-61622941D01*
X83558738Y-62268207D01*
X83236105Y-62268207D01*
X82913472Y-62268207D01*
X82913472Y-61945574D01*
X82913472Y-61622941D01*
X82268207Y-61622941D01*
X81622941Y-61622941D01*
X81622941Y-62268207D01*
X81622941Y-62913472D01*
X80977676Y-62913472D01*
X80332410Y-62913472D01*
X80332410Y-62590839D01*
X80332410Y-62268207D01*
X80009777Y-62268207D01*
X79687144Y-62268207D01*
X79687144Y-62590839D01*
X79687144Y-62913472D01*
X79041879Y-62913472D01*
X78396613Y-62913472D01*
X78396613Y-62268207D01*
X79041879Y-62268207D01*
X79364512Y-62268207D01*
X79687144Y-62268207D01*
X79687144Y-61945574D01*
X79687144Y-61622941D01*
X79364512Y-61622941D01*
X79041879Y-61622941D01*
X79041879Y-61945574D01*
X79041879Y-62268207D01*
X78396613Y-62268207D01*
X78396613Y-61945574D01*
X78396613Y-61622941D01*
X78073980Y-61622941D01*
X77751348Y-61622941D01*
X77751348Y-60977676D01*
X78396613Y-60977676D01*
X79041879Y-60977676D01*
X79687144Y-60977676D01*
X79687144Y-60655043D01*
X79687144Y-60332410D01*
X79041879Y-60332410D01*
X78396613Y-60332410D01*
X78396613Y-60655043D01*
X78396613Y-60977676D01*
X77751348Y-60977676D01*
X77751348Y-60655043D01*
X77751348Y-60332410D01*
X77428715Y-60332410D01*
X77106082Y-60332410D01*
X77106082Y-60009777D01*
X77106082Y-59687144D01*
X78073980Y-59687144D01*
X79041879Y-59687144D01*
X79041879Y-59364512D01*
X79041879Y-59041879D01*
X78719246Y-59041879D01*
X78396613Y-59041879D01*
X78396613Y-58396613D01*
X78396613Y-57751348D01*
X78719246Y-57751348D01*
X79041879Y-57751348D01*
X79041879Y-58073980D01*
X79041879Y-58396613D01*
X79364512Y-58396613D01*
X79687144Y-58396613D01*
X79687144Y-58073980D01*
X79687144Y-57751348D01*
X80009777Y-57751348D01*
X80332410Y-57751348D01*
X80332410Y-58073980D01*
X80332410Y-58396613D01*
X81300308Y-58396613D01*
X82268207Y-58396613D01*
X82268207Y-58719246D01*
X82268207Y-59041879D01*
X80977676Y-59041879D01*
X79687144Y-59041879D01*
X79687144Y-59364512D01*
X79687144Y-59687144D01*
X80332410Y-59687144D01*
X80977676Y-59687144D01*
X80977676Y-60332410D01*
X80977676Y-60977676D01*
X81622941Y-60977676D01*
X82268207Y-60977676D01*
X82268207Y-60332410D01*
X82913472Y-60332410D01*
X83236105Y-60332410D01*
X83558738Y-60332410D01*
X84849269Y-60332410D01*
X85494535Y-60332410D01*
X86139800Y-60332410D01*
X86139800Y-60009777D01*
X86139800Y-59687144D01*
X85494535Y-59687144D01*
X84849269Y-59687144D01*
X84849269Y-60009777D01*
X84849269Y-60332410D01*
X83558738Y-60332410D01*
X83558738Y-60009777D01*
X83558738Y-59687144D01*
X83236105Y-59687144D01*
X82913472Y-59687144D01*
X82913472Y-60009777D01*
X82913472Y-60332410D01*
X82268207Y-60332410D01*
X82268207Y-60009777D01*
X82268207Y-59687144D01*
X82590839Y-59687144D01*
X82913472Y-59687144D01*
X82913472Y-59364512D01*
X82913472Y-59041879D01*
X83236105Y-59041879D01*
X83558738Y-59041879D01*
X83558738Y-58719246D01*
X83558738Y-58396613D01*
X83236105Y-58396613D01*
X82913472Y-58396613D01*
X82913472Y-58073980D01*
X82913472Y-57751348D01*
X83236105Y-57751348D01*
X83558738Y-57751348D01*
X83558738Y-57428715D01*
X83558738Y-57106082D01*
X82913472Y-57106082D01*
X82268207Y-57106082D01*
X82268207Y-57428715D01*
X82268207Y-57751348D01*
X81300308Y-57751348D01*
X80332410Y-57751348D01*
X80332410Y-57428715D01*
X80332410Y-57106082D01*
X80977676Y-57106082D01*
X81622941Y-57106082D01*
X81622941Y-56783449D01*
X81622941Y-56460816D01*
X80977676Y-56460816D01*
X80332410Y-56460816D01*
X80332410Y-56783449D01*
X80332410Y-57106082D01*
X80009777Y-57106082D01*
X79687144Y-57106082D01*
X79687144Y-56783449D01*
X79687144Y-56460816D01*
X79364512Y-56460816D01*
X79041879Y-56460816D01*
X79041879Y-56783449D01*
X79041879Y-57106082D01*
X78719246Y-57106082D01*
X78396613Y-57106082D01*
X78396613Y-56783449D01*
X78396613Y-56460816D01*
X78073980Y-56460816D01*
X77751348Y-56460816D01*
X77751348Y-56138184D01*
X77751348Y-55815551D01*
X77428715Y-55815551D01*
X77106082Y-55815551D01*
X77106082Y-56138184D01*
X77106082Y-56460816D01*
X76783449Y-56460816D01*
X76460816Y-56460816D01*
X76460816Y-57428715D01*
X76460816Y-58396613D01*
X76138184Y-58396613D01*
X75815551Y-58396613D01*
X75815551Y-57751348D01*
X75815551Y-57106082D01*
X75492918Y-57106082D01*
X75170285Y-57106082D01*
X75170285Y-57428715D01*
X75170285Y-57751348D01*
X74847652Y-57751348D01*
X74525020Y-57751348D01*
X74525020Y-58073980D01*
X74525020Y-58396613D01*
X74847652Y-58396613D01*
X75170285Y-58396613D01*
X75170285Y-58719246D01*
X75170285Y-59041879D01*
X74525020Y-59041879D01*
X73879754Y-59041879D01*
X73879754Y-59364512D01*
X73879754Y-59687144D01*
X73557121Y-59687144D01*
X73234488Y-59687144D01*
X73234488Y-60009777D01*
X73234488Y-60332410D01*
X73557121Y-60332410D01*
X73879754Y-60332410D01*
X73879754Y-60977676D01*
X73879754Y-61622941D01*
X73234488Y-61622941D01*
X72589223Y-61622941D01*
X72589223Y-61945574D01*
X72589223Y-62268207D01*
X72911856Y-62268207D01*
X73234488Y-62268207D01*
X73234488Y-62913472D01*
X73234488Y-63558738D01*
X73557121Y-63558738D01*
X73879754Y-63558738D01*
X73879754Y-63236105D01*
X73879754Y-62913472D01*
X74202387Y-62913472D01*
X74525020Y-62913472D01*
X74525020Y-63236105D01*
X74525020Y-63558738D01*
X74202387Y-63558738D01*
X73879754Y-63558738D01*
X73879754Y-63881371D01*
X73879754Y-64204003D01*
X72911856Y-64204003D01*
X71943957Y-64204003D01*
X71943957Y-62913472D01*
X71943957Y-61622941D01*
X72266590Y-61622941D01*
X72589223Y-61622941D01*
X72589223Y-61300308D01*
X72589223Y-60977676D01*
X71943957Y-60977676D01*
X71298692Y-60977676D01*
X71298692Y-62590839D01*
X71298692Y-64204003D01*
X70976059Y-64204003D01*
X70653426Y-64204003D01*
X70653426Y-62268207D01*
X70653426Y-60332410D01*
X70976059Y-60332410D01*
X71298692Y-60332410D01*
X71298692Y-60009777D01*
X71298692Y-59687144D01*
X70976059Y-59687144D01*
X70653426Y-59687144D01*
X70653426Y-59364512D01*
X70653426Y-59041879D01*
X71298692Y-59041879D01*
X71943957Y-59041879D01*
X71943957Y-58719246D01*
X71943957Y-58396613D01*
X72266590Y-58396613D01*
X72589223Y-58396613D01*
X72589223Y-58719246D01*
X72589223Y-59041879D01*
X72266590Y-59041879D01*
X71943957Y-59041879D01*
X71943957Y-59687144D01*
X71943957Y-60332410D01*
X72266590Y-60332410D01*
X72589223Y-60332410D01*
X72589223Y-60009777D01*
X72589223Y-59687144D01*
X72911856Y-59687144D01*
X73234488Y-59687144D01*
X73234488Y-59364512D01*
X73234488Y-59041879D01*
X73557121Y-59041879D01*
X73879754Y-59041879D01*
X73879754Y-58396613D01*
X73879754Y-57751348D01*
X74202387Y-57751348D01*
X74525020Y-57751348D01*
X74525020Y-57428715D01*
X74525020Y-57106082D01*
X74847652Y-57106082D01*
X75170285Y-57106082D01*
X75170285Y-56783449D01*
X75170285Y-56460816D01*
X74847652Y-56460816D01*
X74525020Y-56460816D01*
X74525020Y-56138184D01*
X74525020Y-55815551D01*
X75492918Y-55815551D01*
X76460816Y-55815551D01*
X76460816Y-55492918D01*
X76460816Y-55170285D01*
X76783449Y-55170285D01*
X77106082Y-55170285D01*
X77751348Y-55170285D01*
X78073980Y-55170285D01*
X78396613Y-55170285D01*
X78396613Y-54847652D01*
X78396613Y-54525020D01*
X78073980Y-54525020D01*
X77751348Y-54525020D01*
X77751348Y-54847652D01*
X77751348Y-55170285D01*
X77106082Y-55170285D01*
X77106082Y-54847652D01*
X77106082Y-54525020D01*
X76783449Y-54525020D01*
X76460816Y-54525020D01*
X76460816Y-54847652D01*
X76460816Y-55170285D01*
X76138184Y-55170285D01*
X75815551Y-55170285D01*
X75815551Y-54847652D01*
X75815551Y-54525020D01*
X75815551Y-53879754D01*
X76138184Y-53879754D01*
X76460816Y-53879754D01*
X76460816Y-53557121D01*
X76460816Y-53234488D01*
X76138184Y-53234488D01*
X75815551Y-53234488D01*
X75815551Y-52911856D01*
X75815551Y-52589223D01*
X76783449Y-52589223D01*
X77751348Y-52589223D01*
X77751348Y-52911856D01*
X77751348Y-53234488D01*
X77428715Y-53234488D01*
X77106082Y-53234488D01*
X77106082Y-53879754D01*
X77106082Y-54525020D01*
X77428715Y-54525020D01*
X77751348Y-54525020D01*
X77751348Y-54202387D01*
X80977676Y-54202387D01*
X80977676Y-54525020D01*
X81300308Y-54525020D01*
X81622941Y-54525020D01*
X81622941Y-54202387D01*
X81622941Y-53879754D01*
X81945574Y-53879754D01*
X82268207Y-53879754D01*
X82268207Y-53557121D01*
X82268207Y-53234488D01*
X82590839Y-53234488D01*
X82913472Y-53234488D01*
X82913472Y-52911856D01*
X82913472Y-52589223D01*
X82590839Y-52589223D01*
X82268207Y-52589223D01*
X82268207Y-52911856D01*
X82268207Y-53234488D01*
X81945574Y-53234488D01*
X81622941Y-53234488D01*
X81622941Y-53557121D01*
X81622941Y-53879754D01*
X81300308Y-53879754D01*
X80977676Y-53879754D01*
X80977676Y-54202387D01*
X77751348Y-54202387D01*
X77751348Y-53879754D01*
X78396613Y-53879754D01*
X79041879Y-53879754D01*
X79687144Y-53879754D01*
X80009777Y-53879754D01*
X80332410Y-53879754D01*
X80332410Y-53557121D01*
X80332410Y-53234488D01*
X80009777Y-53234488D01*
X79687144Y-53234488D01*
X79687144Y-53557121D01*
X79687144Y-53879754D01*
X79041879Y-53879754D01*
X79041879Y-53557121D01*
X79041879Y-53234488D01*
X78719246Y-53234488D01*
X78396613Y-53234488D01*
X78396613Y-52589223D01*
X78396613Y-51943957D01*
X78719246Y-51943957D01*
X79041879Y-51943957D01*
X79041879Y-52266590D01*
X79041879Y-52589223D01*
X79364512Y-52589223D01*
X79687144Y-52589223D01*
X79687144Y-51943957D01*
X79687144Y-51298692D01*
X80332410Y-51298692D01*
X80977676Y-51298692D01*
X80977676Y-50976059D01*
X80977676Y-50653426D01*
X82590839Y-50653426D01*
X84204003Y-50653426D01*
X84204003Y-50976059D01*
G37*
G36*
X73879754Y-56460816D02*
G01*
X73879754Y-57106082D01*
X73557121Y-57106082D01*
X73234488Y-57106082D01*
X73234488Y-57428715D01*
X73234488Y-57751348D01*
X72589223Y-57751348D01*
X71943957Y-57751348D01*
X71943957Y-58073980D01*
X71943957Y-58396613D01*
X71298692Y-58396613D01*
X70653426Y-58396613D01*
X70653426Y-57751348D01*
X70653426Y-57106082D01*
X71621324Y-57106082D01*
X72589223Y-57106082D01*
X72589223Y-56783449D01*
X72589223Y-56460816D01*
X71621324Y-56460816D01*
X70653426Y-56460816D01*
X70653426Y-56138184D01*
X70653426Y-55815551D01*
X72266590Y-55815551D01*
X73879754Y-55815551D01*
X73879754Y-56460816D01*
G37*
G36*
X89366128Y-61945574D02*
G01*
X89366128Y-62268207D01*
X89043495Y-62268207D01*
X88720863Y-62268207D01*
X88720863Y-61945574D01*
X88720863Y-61622941D01*
X89043495Y-61622941D01*
X89366128Y-61622941D01*
X89366128Y-61945574D01*
G37*
G36*
X89366128Y-59364512D02*
G01*
X89366128Y-59687144D01*
X89043495Y-59687144D01*
X88720863Y-59687144D01*
X88720863Y-59364512D01*
X88720863Y-59041879D01*
X89043495Y-59041879D01*
X89366128Y-59041879D01*
X89366128Y-59364512D01*
G37*
G36*
X89366128Y-56783449D02*
G01*
X89366128Y-57106082D01*
X89043495Y-57106082D01*
X88720863Y-57106082D01*
X88720863Y-56783449D01*
X88720863Y-56460816D01*
X89043495Y-56460816D01*
X89366128Y-56460816D01*
X89366128Y-56783449D01*
G37*
G36*
X88720863Y-56138184D02*
G01*
X88720863Y-56460816D01*
X88398230Y-56460816D01*
X88075597Y-56460816D01*
X88075597Y-56138184D01*
X88075597Y-55815551D01*
X88398230Y-55815551D01*
X88720863Y-55815551D01*
X88720863Y-56138184D01*
G37*
G36*
X75170285Y-52911856D02*
G01*
X75170285Y-55170285D01*
X72911856Y-55170285D01*
X70653426Y-55170285D01*
X70653426Y-54525020D01*
X71298692Y-54525020D01*
X72911856Y-54525020D01*
X74525020Y-54525020D01*
X74525020Y-52911856D01*
X74525020Y-51298692D01*
X72911856Y-51298692D01*
X71298692Y-51298692D01*
X71298692Y-52911856D01*
X71298692Y-54525020D01*
X70653426Y-54525020D01*
X70653426Y-52911856D01*
X70653426Y-50653426D01*
X72911856Y-50653426D01*
X75170285Y-50653426D01*
X75170285Y-52911856D01*
G37*
G36*
X89366128Y-52911856D02*
G01*
X89366128Y-55170285D01*
X87107699Y-55170285D01*
X84849269Y-55170285D01*
X84849269Y-54525020D01*
X85494535Y-54525020D01*
X87107699Y-54525020D01*
X88720863Y-54525020D01*
X88720863Y-52911856D01*
X88720863Y-51298692D01*
X87107699Y-51298692D01*
X85494535Y-51298692D01*
X85494535Y-52911856D01*
X85494535Y-54525020D01*
X84849269Y-54525020D01*
X84849269Y-52911856D01*
X84849269Y-50653426D01*
X87107699Y-50653426D01*
X89366128Y-50653426D01*
X89366128Y-52911856D01*
G37*
G36*
X76460816Y-51621324D02*
G01*
X76460816Y-51943957D01*
X76138184Y-51943957D01*
X75815551Y-51943957D01*
X75815551Y-51621324D01*
X75815551Y-51298692D01*
X76138184Y-51298692D01*
X76460816Y-51298692D01*
X76460816Y-51621324D01*
G37*
G36*
X77751348Y-51298692D02*
G01*
X77751348Y-51943957D01*
X77428715Y-51943957D01*
X77106082Y-51943957D01*
X77106082Y-51298692D01*
X77106082Y-50653426D01*
X77428715Y-50653426D01*
X77751348Y-50653426D01*
X77751348Y-51298692D01*
G37*
G36*
X79041879Y-50976059D02*
G01*
X79041879Y-51298692D01*
X78719246Y-51298692D01*
X78396613Y-51298692D01*
X78396613Y-50976059D01*
X78396613Y-50653426D01*
X78719246Y-50653426D01*
X79041879Y-50653426D01*
X79041879Y-50976059D01*
G37*
G36*
X73879754Y-67107699D02*
G01*
X73879754Y-68075597D01*
X72911856Y-68075597D01*
X71943957Y-68075597D01*
X71943957Y-67107699D01*
X71943957Y-66139800D01*
X72911856Y-66139800D01*
X73879754Y-66139800D01*
X73879754Y-67107699D01*
G37*
G36*
X79041879Y-63881371D02*
G01*
X79041879Y-64204003D01*
X78719246Y-64204003D01*
X78396613Y-64204003D01*
X78396613Y-64526636D01*
X78396613Y-64849269D01*
X78073980Y-64849269D01*
X77751348Y-64849269D01*
X77751348Y-64526636D01*
X77751348Y-64204003D01*
X78073980Y-64204003D01*
X78396613Y-64204003D01*
X78396613Y-63881371D01*
X78396613Y-63558738D01*
X78719246Y-63558738D01*
X79041879Y-63558738D01*
X79041879Y-63881371D01*
G37*
G36*
X77751348Y-63236105D02*
G01*
X77751348Y-63558738D01*
X77428715Y-63558738D01*
X77106082Y-63558738D01*
X77106082Y-63236105D01*
X77106082Y-62913472D01*
X77428715Y-62913472D01*
X77751348Y-62913472D01*
X77751348Y-63236105D01*
G37*
G36*
X75170285Y-61300308D02*
G01*
X75170285Y-61622941D01*
X74847652Y-61622941D01*
X74525020Y-61622941D01*
X74525020Y-61945574D01*
X74525020Y-62268207D01*
X74847652Y-62268207D01*
X75170285Y-62268207D01*
X75170285Y-61945574D01*
X75170285Y-61622941D01*
X75492918Y-61622941D01*
X75815551Y-61622941D01*
X75815551Y-62268207D01*
X75815551Y-62913472D01*
X75170285Y-62913472D01*
X74525020Y-62913472D01*
X74525020Y-62590839D01*
X74525020Y-62268207D01*
X74202387Y-62268207D01*
X73879754Y-62268207D01*
X73879754Y-61945574D01*
X73879754Y-61622941D01*
X74202387Y-61622941D01*
X74525020Y-61622941D01*
X74525020Y-61300308D01*
X74525020Y-60977676D01*
X74847652Y-60977676D01*
X75170285Y-60977676D01*
X75170285Y-61300308D01*
G37*
G36*
X82913472Y-62590839D02*
G01*
X82913472Y-62913472D01*
X82590839Y-62913472D01*
X82268207Y-62913472D01*
X82268207Y-62590839D01*
X82268207Y-62268207D01*
X82590839Y-62268207D01*
X82913472Y-62268207D01*
X82913472Y-62590839D01*
G37*
G36*
X77751348Y-61945574D02*
G01*
X77751348Y-62268207D01*
X77428715Y-62268207D01*
X77106082Y-62268207D01*
X77106082Y-61945574D01*
X77106082Y-61622941D01*
X77428715Y-61622941D01*
X77751348Y-61622941D01*
X77751348Y-61945574D01*
G37*
G36*
X77106082Y-61300308D02*
G01*
X77106082Y-61622941D01*
X76783449Y-61622941D01*
X76460816Y-61622941D01*
X76460816Y-61300308D01*
X76460816Y-60977676D01*
X76783449Y-60977676D01*
X77106082Y-60977676D01*
X77106082Y-61300308D01*
G37*
G36*
X75170285Y-60009777D02*
G01*
X75170285Y-60332410D01*
X74525020Y-60332410D01*
X73879754Y-60332410D01*
X73879754Y-60009777D01*
X73879754Y-59687144D01*
X74525020Y-59687144D01*
X75170285Y-59687144D01*
X75170285Y-60009777D01*
G37*
G36*
X77751348Y-58719246D02*
G01*
X77751348Y-59041879D01*
X77428715Y-59041879D01*
X77106082Y-59041879D01*
X77106082Y-59364512D01*
X77106082Y-59687144D01*
X76460816Y-59687144D01*
X75815551Y-59687144D01*
X75815551Y-59364512D01*
X75815551Y-59041879D01*
X76138184Y-59041879D01*
X76460816Y-59041879D01*
X76460816Y-58719246D01*
X76460816Y-58396613D01*
X77106082Y-58396613D01*
X77751348Y-58396613D01*
X77751348Y-58719246D01*
G37*
G36*
X77751348Y-57106082D02*
G01*
X77751348Y-57751348D01*
X77428715Y-57751348D01*
X77106082Y-57751348D01*
X77106082Y-57106082D01*
X77106082Y-56460816D01*
X77428715Y-56460816D01*
X77751348Y-56460816D01*
X77751348Y-57106082D01*
G37*
G36*
X79687144Y-57428715D02*
G01*
X79687144Y-57751348D01*
X79364512Y-57751348D01*
X79041879Y-57751348D01*
X79041879Y-57428715D01*
X79041879Y-57106082D01*
X79364512Y-57106082D01*
X79687144Y-57106082D01*
X79687144Y-57428715D01*
G37*
G36*
X85494535Y-65171902D02*
G01*
X85494535Y-65494535D01*
X85171902Y-65494535D01*
X84849269Y-65494535D01*
X84849269Y-65171902D01*
X84849269Y-64849269D01*
X85171902Y-64849269D01*
X85494535Y-64849269D01*
X85494535Y-65171902D01*
G37*
G36*
X73879754Y-52911856D02*
G01*
X73879754Y-53879754D01*
X72911856Y-53879754D01*
X71943957Y-53879754D01*
X71943957Y-52911856D01*
X71943957Y-51943957D01*
X72911856Y-51943957D01*
X73879754Y-51943957D01*
X73879754Y-52911856D01*
G37*
G36*
X88075597Y-52911856D02*
G01*
X88075597Y-53879754D01*
X87107699Y-53879754D01*
X86139800Y-53879754D01*
X86139800Y-52911856D01*
X86139800Y-51943957D01*
X87107699Y-51943957D01*
X88075597Y-51943957D01*
X88075597Y-52911856D01*
G37*
D13*
%TO.C,J4*%
X55090000Y-84170000D02*
X55090000Y-86830000D01*
X60230000Y-84170000D02*
X55090000Y-84170000D01*
X60230000Y-84170000D02*
X60230000Y-86830000D01*
X60230000Y-86830000D02*
X55090000Y-86830000D01*
X62830000Y-85500000D02*
X62830000Y-86830000D01*
X62830000Y-86830000D02*
X61500000Y-86830000D01*
%TO.C,J10*%
X54130000Y-62670000D02*
X55460000Y-62670000D01*
X54130000Y-64000000D02*
X54130000Y-62670000D01*
X56730000Y-62670000D02*
X64410000Y-62670000D01*
X56730000Y-65330000D02*
X56730000Y-62670000D01*
X56730000Y-65330000D02*
X64410000Y-65330000D01*
X64410000Y-65330000D02*
X64410000Y-62670000D01*
%TO.C,SW1*%
X91195000Y-36020000D02*
X91195000Y-38620000D01*
X91195000Y-36020000D02*
X93855000Y-36020000D01*
X91195000Y-38620000D02*
X93855000Y-38620000D01*
X92525000Y-33420000D02*
X93855000Y-33420000D01*
X93855000Y-33420000D02*
X93855000Y-34750000D01*
X93855000Y-36020000D02*
X93855000Y-38620000D01*
%TO.C,J3*%
X54670000Y-55645000D02*
X56000000Y-55645000D01*
X54670000Y-56975000D02*
X54670000Y-55645000D01*
X57270000Y-55645000D02*
X62410000Y-55645000D01*
X57270000Y-58305000D02*
X57270000Y-55645000D01*
X57270000Y-58305000D02*
X62410000Y-58305000D01*
X62410000Y-58305000D02*
X62410000Y-55645000D01*
%TO.C,U2*%
X55100000Y-38100000D02*
X55100000Y-35800000D01*
X55375000Y-21575000D02*
X71625000Y-21575000D01*
X55375000Y-37825000D02*
X55375000Y-21575000D01*
X57200000Y-38100000D02*
X55100000Y-38100000D01*
X71625000Y-21575000D02*
X71625000Y-37825000D01*
X71625000Y-37825000D02*
X55375000Y-37825000D01*
%TO.C,J5*%
X54090000Y-91670000D02*
X54090000Y-94330000D01*
X61770000Y-91670000D02*
X54090000Y-91670000D01*
X61770000Y-91670000D02*
X61770000Y-94330000D01*
X61770000Y-94330000D02*
X54090000Y-94330000D01*
X64370000Y-93000000D02*
X64370000Y-94330000D01*
X64370000Y-94330000D02*
X63040000Y-94330000D01*
%TO.C,J1*%
X54115000Y-75695000D02*
X54115000Y-78355000D01*
X59255000Y-75695000D02*
X54115000Y-75695000D01*
X59255000Y-75695000D02*
X59255000Y-78355000D01*
X59255000Y-78355000D02*
X54115000Y-78355000D01*
X61855000Y-77025000D02*
X61855000Y-78355000D01*
X61855000Y-78355000D02*
X60525000Y-78355000D01*
%TO.C,J8*%
X54645000Y-43645000D02*
X55975000Y-43645000D01*
X54645000Y-44975000D02*
X54645000Y-43645000D01*
X57245000Y-43645000D02*
X62385000Y-43645000D01*
X57245000Y-46305000D02*
X57245000Y-43645000D01*
X57245000Y-46305000D02*
X62385000Y-46305000D01*
X62385000Y-46305000D02*
X62385000Y-43645000D01*
%TO.C,D1*%
X76210000Y-35264000D02*
X76210000Y-35420000D01*
X76210000Y-37580000D02*
X76210000Y-37736000D01*
X76210000Y-35264484D02*
G75*
G02*
X79442335Y-35421392I1560000J-1235516D01*
G01*
X76729039Y-35420000D02*
G75*
G02*
X78811130Y-35420163I1040961J-1080000D01*
G01*
X78811130Y-37579837D02*
G75*
G02*
X76729039Y-37580000I-1041130J1079837D01*
G01*
X79442335Y-37578608D02*
G75*
G02*
X76210000Y-37735516I-1672335J1078608D01*
G01*
%TO.C,SW2*%
X79770000Y-22270000D02*
X79770000Y-22300000D01*
X79770000Y-26800000D02*
X79770000Y-24200000D01*
X79770000Y-28730000D02*
X79770000Y-28700000D01*
X86230000Y-22270000D02*
X79770000Y-22270000D01*
X86230000Y-22270000D02*
X86230000Y-22300000D01*
X86230000Y-26800000D02*
X86230000Y-24200000D01*
X86230000Y-28700000D02*
X86230000Y-28730000D01*
X86230000Y-28730000D02*
X79770000Y-28730000D01*
%TO.C,J6*%
X72670000Y-24710000D02*
X72670000Y-24830000D01*
X72670000Y-24830000D02*
X75330000Y-24830000D01*
X74000000Y-22170000D02*
X75330000Y-22170000D01*
X75330000Y-22170000D02*
X75330000Y-23500000D01*
X75330000Y-24710000D02*
X75330000Y-24830000D01*
%TO.C,J9*%
X54130000Y-68645000D02*
X55460000Y-68645000D01*
X54130000Y-69975000D02*
X54130000Y-68645000D01*
X56730000Y-68645000D02*
X64410000Y-68645000D01*
X56730000Y-71305000D02*
X56730000Y-68645000D01*
X56730000Y-71305000D02*
X64410000Y-71305000D01*
X64410000Y-71305000D02*
X64410000Y-68645000D01*
D14*
%TO.C,U1*%
X66050000Y-39850000D02*
X93950000Y-39850000D01*
X66050000Y-94250000D02*
X66050000Y-39850000D01*
X93950000Y-39850000D02*
X93950000Y-94250000D01*
X93950000Y-94250000D02*
X66050000Y-94250000D01*
D15*
X65500000Y-47240000D02*
G75*
G02*
X65300000Y-47240000I-100000J0D01*
G01*
X65300000Y-47240000D02*
G75*
G02*
X65500000Y-47240000I100000J0D01*
G01*
D13*
%TO.C,J7*%
X54670000Y-49170000D02*
X56000000Y-49170000D01*
X54670000Y-50500000D02*
X54670000Y-49170000D01*
X57270000Y-49170000D02*
X62410000Y-49170000D01*
X57270000Y-51830000D02*
X57270000Y-49170000D01*
X57270000Y-51830000D02*
X62410000Y-51830000D01*
X62410000Y-51830000D02*
X62410000Y-49170000D01*
%TO.C,R1*%
X82230000Y-35130000D02*
X82230000Y-35460000D01*
X82230000Y-37870000D02*
X82230000Y-37540000D01*
X88770000Y-35130000D02*
X82230000Y-35130000D01*
X88770000Y-35460000D02*
X88770000Y-35130000D01*
X88770000Y-37540000D02*
X88770000Y-37870000D01*
X88770000Y-37870000D02*
X82230000Y-37870000D01*
%TO.C,J2*%
X91170000Y-23970000D02*
X91170000Y-31650000D01*
X91170000Y-23970000D02*
X93830000Y-23970000D01*
X91170000Y-31650000D02*
X93830000Y-31650000D01*
X92500000Y-21370000D02*
X93830000Y-21370000D01*
X93830000Y-21370000D02*
X93830000Y-22700000D01*
X93830000Y-23970000D02*
X93830000Y-31650000D01*
%TD*%
M02*
