%TF.GenerationSoftware,KiCad,Pcbnew,8.0.2*%
%TF.CreationDate,2024-05-16T13:39:08+01:00*%
%TF.ProjectId,test,74657374-2e6b-4696-9361-645f70636258,rev?*%
%TF.SameCoordinates,Original*%
%TF.FileFunction,Copper,L1,Top*%
%TF.FilePolarity,Positive*%
%FSLAX46Y46*%
G04 Gerber Fmt 4.6, Leading zero omitted, Abs format (unit mm)*
G04 Created by KiCad (PCBNEW 8.0.2) date 2024-05-16 13:39:08*
%MOMM*%
%LPD*%
G01*
G04 APERTURE LIST*
%TA.AperFunction,ComponentPad*%
%ADD10R,1.700000X1.700000*%
%TD*%
%TA.AperFunction,ComponentPad*%
%ADD11O,1.700000X1.700000*%
%TD*%
%TA.AperFunction,ComponentPad*%
%ADD12R,1.350000X1.350000*%
%TD*%
%TA.AperFunction,ComponentPad*%
%ADD13C,1.350000*%
%TD*%
%TA.AperFunction,ComponentPad*%
%ADD14R,1.800000X1.800000*%
%TD*%
%TA.AperFunction,ComponentPad*%
%ADD15C,1.800000*%
%TD*%
%TA.AperFunction,SMDPad,CuDef*%
%ADD16R,1.550000X1.300000*%
%TD*%
%TA.AperFunction,ComponentPad*%
%ADD17R,1.560000X1.560000*%
%TD*%
%TA.AperFunction,ComponentPad*%
%ADD18C,1.560000*%
%TD*%
%TA.AperFunction,ComponentPad*%
%ADD19C,1.600000*%
%TD*%
%TA.AperFunction,ComponentPad*%
%ADD20O,1.600000X1.600000*%
%TD*%
%TA.AperFunction,Conductor*%
%ADD21C,0.200000*%
%TD*%
G04 APERTURE END LIST*
D10*
%TO.P,J4,1,Pin_1*%
%TO.N,GND*%
X61500000Y-85500000D03*
D11*
%TO.P,J4,2,Pin_2*%
%TO.N,/IO15*%
X58960000Y-85500000D03*
%TO.P,J4,3,Pin_3*%
%TO.N,+5V*%
X56420000Y-85500000D03*
%TD*%
D10*
%TO.P,J10,1,Pin_1*%
%TO.N,/IO26*%
X55460000Y-64000000D03*
D11*
%TO.P,J10,2,Pin_2*%
%TO.N,+5V*%
X58000000Y-64000000D03*
%TO.P,J10,3,Pin_3*%
%TO.N,GND*%
X60540000Y-64000000D03*
%TO.P,J10,4,Pin_4*%
%TO.N,unconnected-(J10-Pin_4-Pad4)*%
X63080000Y-64000000D03*
%TD*%
D10*
%TO.P,SW1,1,A*%
%TO.N,Net-(SW1-A)*%
X92525000Y-34750000D03*
D11*
%TO.P,SW1,2,B*%
%TO.N,GND*%
X92525000Y-37290000D03*
%TD*%
D10*
%TO.P,J3,1,Pin_1*%
%TO.N,GND*%
X56000000Y-56975000D03*
D11*
%TO.P,J3,2,Pin_2*%
%TO.N,+5V*%
X58540000Y-56975000D03*
%TO.P,J3,3,Pin_3*%
%TO.N,/IO34*%
X61080000Y-56975000D03*
%TD*%
D12*
%TO.P,U2,1,GND*%
%TO.N,GND*%
X56500000Y-36500000D03*
D13*
%TO.P,U2,2,MISO*%
%TO.N,Net-(U1-IO19)*%
X58500000Y-36500000D03*
%TO.P,U2,3,MOSI*%
%TO.N,Net-(U1-IO23)*%
X60500000Y-36500000D03*
%TO.P,U2,4,SCK*%
%TO.N,Net-(U1-IO18)*%
X62500000Y-36500000D03*
%TO.P,U2,5,NSS*%
%TO.N,Net-(U1-IO5)*%
X64500000Y-36500000D03*
%TO.P,U2,6,RESET*%
%TO.N,Net-(U1-IO14)*%
X66500000Y-36500000D03*
%TO.P,U2,7,DIO5*%
%TO.N,unconnected-(U2-DIO5-Pad7)*%
X68500000Y-36500000D03*
%TO.P,U2,8,GND*%
%TO.N,unconnected-(U2-GND-Pad8)*%
X70500000Y-36500000D03*
%TO.P,U2,9,ANT*%
%TO.N,Net-(J6-Pin_1)*%
X70500000Y-22900000D03*
%TO.P,U2,10,GND*%
%TO.N,unconnected-(U2-GND-Pad10)*%
X68500000Y-22900000D03*
%TO.P,U2,11,DIO3*%
%TO.N,unconnected-(U2-DIO3-Pad11)*%
X66500000Y-22900000D03*
%TO.P,U2,12,DIO4*%
%TO.N,unconnected-(U2-DIO4-Pad12)*%
X64500000Y-22900000D03*
%TO.P,U2,13,3.3V*%
%TO.N,+3.3V*%
X62500000Y-22900000D03*
%TO.P,U2,14,DIO0*%
%TO.N,Net-(U1-IO2)*%
X60500000Y-22900000D03*
%TO.P,U2,15,DIO1*%
%TO.N,unconnected-(U2-DIO1-Pad15)*%
X58500000Y-22900000D03*
%TO.P,U2,16,DIO2*%
%TO.N,unconnected-(U2-DIO2-Pad16)*%
X56500000Y-22900000D03*
%TD*%
D10*
%TO.P,J5,1,Pin_1*%
%TO.N,/SCL*%
X63040000Y-93000000D03*
D11*
%TO.P,J5,2,Pin_2*%
%TO.N,/SDA*%
X60500000Y-93000000D03*
%TO.P,J5,3,Pin_3*%
%TO.N,+5V*%
X57960000Y-93000000D03*
%TO.P,J5,4,Pin_4*%
%TO.N,GND*%
X55420000Y-93000000D03*
%TD*%
D10*
%TO.P,J1,1,Pin_1*%
%TO.N,GND*%
X60525000Y-77025000D03*
D11*
%TO.P,J1,2,Pin_2*%
%TO.N,/IO4*%
X57985000Y-77025000D03*
%TO.P,J1,3,Pin_3*%
%TO.N,+5V*%
X55445000Y-77025000D03*
%TD*%
D10*
%TO.P,J8,1,Pin_1*%
%TO.N,GND*%
X55975000Y-44975000D03*
D11*
%TO.P,J8,2,Pin_2*%
%TO.N,/IO27*%
X58515000Y-44975000D03*
%TO.P,J8,3,Pin_3*%
%TO.N,+3.3V*%
X61055000Y-44975000D03*
%TD*%
D14*
%TO.P,D1,1,K*%
%TO.N,GND*%
X76500000Y-36500000D03*
D15*
%TO.P,D1,2,A*%
%TO.N,Net-(D1-A)*%
X79040000Y-36500000D03*
%TD*%
D16*
%TO.P,SW2,1,1*%
%TO.N,GND*%
X86980000Y-27750000D03*
X79020000Y-27750000D03*
%TO.P,SW2,2,2*%
%TO.N,Net-(U1-IO16)*%
X86980000Y-23250000D03*
X79020000Y-23250000D03*
%TD*%
D10*
%TO.P,J6,1,Pin_1*%
%TO.N,Net-(J6-Pin_1)*%
X74000000Y-23500000D03*
%TD*%
%TO.P,J9,1,Pin_1*%
%TO.N,/IO25*%
X55460000Y-69975000D03*
D11*
%TO.P,J9,2,Pin_2*%
%TO.N,+5V*%
X58000000Y-69975000D03*
%TO.P,J9,3,Pin_3*%
%TO.N,GND*%
X60540000Y-69975000D03*
%TO.P,J9,4,Pin_4*%
%TO.N,unconnected-(J9-Pin_4-Pad4)*%
X63080000Y-69975000D03*
%TD*%
D17*
%TO.P,U1,J2-1,3V3*%
%TO.N,+3.3V*%
X67300000Y-47240000D03*
D18*
%TO.P,U1,J2-2,EN*%
%TO.N,unconnected-(U1-EN-PadJ2-2)*%
X67300000Y-49780000D03*
%TO.P,U1,J2-3,SENSOR_VP*%
%TO.N,unconnected-(U1-SENSOR_VP-PadJ2-3)*%
X67300000Y-52320000D03*
%TO.P,U1,J2-4,SENSOR_VN*%
%TO.N,unconnected-(U1-SENSOR_VN-PadJ2-4)*%
X67300000Y-54860000D03*
%TO.P,U1,J2-5,IO34*%
%TO.N,/IO34*%
X67300000Y-57400000D03*
%TO.P,U1,J2-6,IO35*%
%TO.N,Net-(U1-IO35)*%
X67300000Y-59940000D03*
%TO.P,U1,J2-7,IO32*%
%TO.N,unconnected-(U1-IO32-PadJ2-7)*%
X67300000Y-62480000D03*
%TO.P,U1,J2-8,IO33*%
%TO.N,unconnected-(U1-IO33-PadJ2-8)*%
X67300000Y-65020000D03*
%TO.P,U1,J2-9,IO25*%
%TO.N,/IO25*%
X67300000Y-67560000D03*
%TO.P,U1,J2-10,IO26*%
%TO.N,/IO26*%
X67300000Y-70100000D03*
%TO.P,U1,J2-11,IO27*%
%TO.N,/IO27*%
X67300000Y-72640000D03*
%TO.P,U1,J2-12,IO14*%
%TO.N,Net-(U1-IO14)*%
X67300000Y-75180000D03*
%TO.P,U1,J2-13,IO12*%
%TO.N,/IO12*%
X67300000Y-77720000D03*
%TO.P,U1,J2-14,GND1*%
%TO.N,GND*%
X67300000Y-80260000D03*
%TO.P,U1,J2-15,IO13*%
%TO.N,unconnected-(U1-IO13-PadJ2-15)*%
X67300000Y-82800000D03*
%TO.P,U1,J2-16,SD2*%
%TO.N,unconnected-(U1-SD2-PadJ2-16)*%
X67300000Y-85340000D03*
%TO.P,U1,J2-17,SD3*%
%TO.N,unconnected-(U1-SD3-PadJ2-17)*%
X67300000Y-87880000D03*
%TO.P,U1,J2-18,CMD*%
%TO.N,unconnected-(U1-CMD-PadJ2-18)*%
X67300000Y-90420000D03*
%TO.P,U1,J2-19,EXT_5V*%
%TO.N,+5V*%
X67300000Y-92960000D03*
%TO.P,U1,J3-1,GND3*%
%TO.N,GND*%
X92700000Y-47240000D03*
%TO.P,U1,J3-2,IO23*%
%TO.N,Net-(U1-IO23)*%
X92700000Y-49780000D03*
%TO.P,U1,J3-3,IO22*%
%TO.N,/SCL*%
X92700000Y-52320000D03*
%TO.P,U1,J3-4,TXD0*%
%TO.N,unconnected-(U1-TXD0-PadJ3-4)*%
X92700000Y-54860000D03*
%TO.P,U1,J3-5,RXD0*%
%TO.N,unconnected-(U1-RXD0-PadJ3-5)*%
X92700000Y-57400000D03*
%TO.P,U1,J3-6,IO21*%
%TO.N,/SDA*%
X92700000Y-59940000D03*
%TO.P,U1,J3-7,GND2*%
%TO.N,GND*%
X92700000Y-62480000D03*
%TO.P,U1,J3-8,IO19*%
%TO.N,Net-(U1-IO19)*%
X92700000Y-65020000D03*
%TO.P,U1,J3-9,IO18*%
%TO.N,Net-(U1-IO18)*%
X92700000Y-67560000D03*
%TO.P,U1,J3-10,IO5*%
%TO.N,Net-(U1-IO5)*%
X92700000Y-70100000D03*
%TO.P,U1,J3-11,IO17*%
%TO.N,Net-(SW1-A)*%
X92700000Y-72640000D03*
%TO.P,U1,J3-12,IO16*%
%TO.N,Net-(U1-IO16)*%
X92700000Y-75180000D03*
%TO.P,U1,J3-13,IO4*%
%TO.N,/IO4*%
X92700000Y-77720000D03*
%TO.P,U1,J3-14,IO0*%
%TO.N,unconnected-(U1-IO0-PadJ3-14)*%
X92700000Y-80260000D03*
%TO.P,U1,J3-15,IO2*%
%TO.N,Net-(U1-IO2)*%
X92700000Y-82800000D03*
%TO.P,U1,J3-16,IO15*%
%TO.N,/IO15*%
X92700000Y-85340000D03*
%TO.P,U1,J3-17,SD1*%
%TO.N,unconnected-(U1-SD1-PadJ3-17)*%
X92700000Y-87880000D03*
%TO.P,U1,J3-18,SD0*%
%TO.N,unconnected-(U1-SD0-PadJ3-18)*%
X92700000Y-90420000D03*
%TO.P,U1,J3-19,CLK*%
%TO.N,unconnected-(U1-CLK-PadJ3-19)*%
X92700000Y-92960000D03*
%TD*%
D10*
%TO.P,J7,1,Pin_1*%
%TO.N,GND*%
X56000000Y-50500000D03*
D11*
%TO.P,J7,2,Pin_2*%
%TO.N,/IO12*%
X58540000Y-50500000D03*
%TO.P,J7,3,Pin_3*%
%TO.N,+3.3V*%
X61080000Y-50500000D03*
%TD*%
D19*
%TO.P,R1,1*%
%TO.N,Net-(D1-A)*%
X89310000Y-36500000D03*
D20*
%TO.P,R1,2*%
%TO.N,Net-(U1-IO35)*%
X81690000Y-36500000D03*
%TD*%
D10*
%TO.P,J2,1,Pin_1*%
%TO.N,/SDA*%
X92500000Y-22700000D03*
D11*
%TO.P,J2,2,Pin_2*%
%TO.N,/SCL*%
X92500000Y-25240000D03*
%TO.P,J2,3,Pin_3*%
%TO.N,GND*%
X92500000Y-27780000D03*
%TO.P,J2,4,Pin_4*%
%TO.N,+5V*%
X92500000Y-30320000D03*
%TD*%
D21*
%TO.N,/IO12*%
X61810000Y-72230000D02*
X61810000Y-61214800D01*
X59810000Y-59214800D02*
X59810000Y-52921700D01*
X61810000Y-61214800D02*
X59810000Y-59214800D01*
X67300000Y-77720000D02*
X61810000Y-72230000D01*
X58540000Y-50500000D02*
X58540000Y-51651700D01*
X59810000Y-52921700D02*
X58540000Y-51651700D01*
%TO.N,+5V*%
X58000000Y-73318300D02*
X58000000Y-69975000D01*
X55445000Y-75873300D02*
X58000000Y-73318300D01*
X58000000Y-64000000D02*
X58000000Y-62848300D01*
X58000000Y-69975000D02*
X58000000Y-64000000D01*
X58000000Y-62848300D02*
X58540000Y-62308300D01*
X57960000Y-93000000D02*
X57960000Y-91848300D01*
X56420000Y-90308300D02*
X56420000Y-85500000D01*
X58540000Y-62308300D02*
X58540000Y-56975000D01*
X55445000Y-77025000D02*
X55445000Y-75873300D01*
X57960000Y-91848300D02*
X56420000Y-90308300D01*
%TO.N,GND*%
X56500000Y-43298300D02*
X55975000Y-43823300D01*
X91205600Y-60985600D02*
X91205600Y-48734400D01*
X60525000Y-78176700D02*
X64098300Y-81750000D01*
X64098300Y-81750000D02*
X61500000Y-84348300D01*
X60525000Y-76449100D02*
X60525000Y-75873300D01*
X79020000Y-27750000D02*
X79020000Y-28225800D01*
X60540000Y-69975000D02*
X60540000Y-64000000D01*
X56000000Y-56975000D02*
X56000000Y-50500000D01*
X60525000Y-76449100D02*
X60525000Y-77025000D01*
X61500000Y-85500000D02*
X61500000Y-84348300D01*
X56000000Y-49348300D02*
X55975000Y-49323300D01*
X92500000Y-27780000D02*
X91348300Y-27780000D01*
X56500000Y-36500000D02*
X56500000Y-43298300D01*
X60525000Y-77025000D02*
X60525000Y-78176700D01*
X65588300Y-80260000D02*
X64098300Y-81750000D01*
X60525000Y-71141700D02*
X60525000Y-75873300D01*
X79020000Y-28225800D02*
X85427500Y-28225800D01*
X85427500Y-28225800D02*
X85903300Y-27750000D01*
X79020000Y-28225800D02*
X79020000Y-28701700D01*
X91205600Y-48734400D02*
X92700000Y-47240000D01*
X86980000Y-27750000D02*
X91318300Y-27750000D01*
X60540000Y-71126700D02*
X60525000Y-71141700D01*
X76500000Y-31221700D02*
X79020000Y-28701700D01*
X76500000Y-36500000D02*
X76500000Y-31221700D01*
X67300000Y-80260000D02*
X65588300Y-80260000D01*
X92700000Y-62480000D02*
X91205600Y-60985600D01*
X56000000Y-50500000D02*
X56000000Y-49348300D01*
X55975000Y-44975000D02*
X55975000Y-43823300D01*
X55975000Y-49323300D02*
X55975000Y-44975000D01*
X86980000Y-27750000D02*
X85903300Y-27750000D01*
X91318300Y-27750000D02*
X91348300Y-27780000D01*
X60540000Y-69975000D02*
X60540000Y-71126700D01*
%TO.N,/IO27*%
X58515000Y-46126700D02*
X65399900Y-53011600D01*
X65399900Y-53011600D02*
X65399900Y-70739900D01*
X58515000Y-44975000D02*
X58515000Y-46126700D01*
X65399900Y-70739900D02*
X67300000Y-72640000D01*
%TO.N,/SDA*%
X92787900Y-23851700D02*
X93782600Y-24846400D01*
X92500000Y-22700000D02*
X92500000Y-23851700D01*
X93782600Y-58857400D02*
X92700000Y-59940000D01*
X93782600Y-24846400D02*
X93782600Y-58857400D01*
X92500000Y-23851700D02*
X92787900Y-23851700D01*
%TO.N,Net-(U1-IO16)*%
X79020000Y-23250000D02*
X79020000Y-23725800D01*
X75434900Y-37701700D02*
X75292500Y-37559300D01*
X79020000Y-23725800D02*
X79020000Y-24201700D01*
X83579800Y-36792700D02*
X82172700Y-35385600D01*
X86980000Y-23250000D02*
X85903300Y-23250000D01*
X81211900Y-35385600D02*
X80435700Y-36161800D01*
X80435700Y-36834800D02*
X79568800Y-37701700D01*
X82172700Y-35385600D02*
X81211900Y-35385600D01*
X79020000Y-23725800D02*
X85427500Y-23725800D01*
X80435700Y-36161800D02*
X80435700Y-36834800D01*
X75292500Y-27929200D02*
X79020000Y-24201700D01*
X83579800Y-66059800D02*
X83579800Y-36792700D01*
X79568800Y-37701700D02*
X75434900Y-37701700D01*
X92700000Y-75180000D02*
X83579800Y-66059800D01*
X75292500Y-37559300D02*
X75292500Y-27929200D01*
X85427500Y-23725800D02*
X85903300Y-23250000D01*
%TO.N,/SCL*%
X65343400Y-91848300D02*
X68494900Y-91848300D01*
X63040000Y-93000000D02*
X64191700Y-93000000D01*
X93811400Y-83251000D02*
X93811400Y-62000300D01*
X93021100Y-61210000D02*
X92430700Y-61210000D01*
X68494900Y-91848300D02*
X76273200Y-84070000D01*
X92992400Y-84070000D02*
X93811400Y-83251000D01*
X76273200Y-84070000D02*
X92992400Y-84070000D01*
X91614700Y-60394000D02*
X91614700Y-53405300D01*
X64191700Y-93000000D02*
X65343400Y-91848300D01*
X93811400Y-62000300D02*
X93021100Y-61210000D01*
X92430700Y-61210000D02*
X91614700Y-60394000D01*
X91614700Y-53405300D02*
X92700000Y-52320000D01*
%TO.N,Net-(SW1-A)*%
X92525000Y-34750000D02*
X92525000Y-35901700D01*
X90781100Y-37357700D02*
X92237100Y-35901700D01*
X92700000Y-72640000D02*
X90781100Y-70721100D01*
X90781100Y-70721100D02*
X90781100Y-37357700D01*
X92237100Y-35901700D02*
X92525000Y-35901700D01*
%TO.N,Net-(U1-IO35)*%
X81690000Y-36500000D02*
X81690000Y-45550000D01*
X81690000Y-45550000D02*
X67300000Y-59940000D01*
%TO.N,Net-(U1-IO14)*%
X67599900Y-71370000D02*
X68422600Y-72192700D01*
X65801600Y-37198400D02*
X65801600Y-70138500D01*
X65801600Y-70138500D02*
X67033100Y-71370000D01*
X68422600Y-74057400D02*
X67300000Y-75180000D01*
X68422600Y-72192700D02*
X68422600Y-74057400D01*
X67033100Y-71370000D02*
X67599900Y-71370000D01*
X66500000Y-36500000D02*
X65801600Y-37198400D01*
%TO.N,+3.3V*%
X61055000Y-43823300D02*
X61500000Y-43378300D01*
X61500000Y-43378300D02*
X61500000Y-23900000D01*
X61055000Y-44975000D02*
X61055000Y-43823300D01*
X61500000Y-23900000D02*
X62500000Y-22900000D01*
%TO.N,Net-(U1-IO2)*%
X61533600Y-21866400D02*
X60500000Y-22900000D01*
X62900500Y-21866400D02*
X61533600Y-21866400D01*
X66203300Y-60386800D02*
X66203300Y-38897200D01*
X67500000Y-27450000D02*
X63493900Y-23443900D01*
X66959500Y-61143000D02*
X66203300Y-60386800D01*
X92700000Y-82800000D02*
X71043000Y-61143000D01*
X71043000Y-61143000D02*
X66959500Y-61143000D01*
X63493900Y-22459800D02*
X62900500Y-21866400D01*
X67500000Y-37600500D02*
X67500000Y-27450000D01*
X66203300Y-38897200D02*
X67500000Y-37600500D01*
X63493900Y-23443900D02*
X63493900Y-22459800D01*
%TD*%
M02*
