M48
; DRILL file {KiCad 8.0.2} date 2024-05-16T13:44:07+0100
; FORMAT={-:-/ absolute / metric / decimal}
; #@! TF.CreationDate,2024-05-16T13:44:07+01:00
; #@! TF.GenerationSoftware,Kicad,Pcbnew,8.0.2
; #@! TF.FileFunction,Plated,1,2,PTH
FMAT,2
METRIC
; #@! TA.AperFunction,Plated,PTH,ComponentDrill
T1C0.800
; #@! TA.AperFunction,Plated,PTH,ComponentDrill
T2C0.900
; #@! TA.AperFunction,Plated,PTH,ComponentDrill
T3C1.000
; #@! TA.AperFunction,Plated,PTH,ComponentDrill
T4C1.040
%
G90
G05
T1
X56.5Y-22.9
X56.5Y-36.5
X58.5Y-22.9
X58.5Y-36.5
X60.5Y-22.9
X60.5Y-36.5
X62.5Y-22.9
X62.5Y-36.5
X64.5Y-22.9
X64.5Y-36.5
X66.5Y-22.9
X66.5Y-36.5
X68.5Y-22.9
X68.5Y-36.5
X70.5Y-22.9
X70.5Y-36.5
X81.69Y-36.5
X89.31Y-36.5
T2
X76.5Y-36.5
X79.04Y-36.5
T3
X55.42Y-93.0
X55.445Y-77.025
X55.46Y-64.0
X55.46Y-69.975
X55.975Y-44.975
X56.0Y-50.5
X56.0Y-56.975
X56.42Y-85.5
X57.96Y-93.0
X57.985Y-77.025
X58.0Y-64.0
X58.0Y-69.975
X58.515Y-44.975
X58.54Y-50.5
X58.54Y-56.975
X58.96Y-85.5
X60.5Y-93.0
X60.525Y-77.025
X60.54Y-64.0
X60.54Y-69.975
X61.055Y-44.975
X61.08Y-50.5
X61.08Y-56.975
X61.5Y-85.5
X63.04Y-93.0
X63.08Y-64.0
X63.08Y-69.975
X74.0Y-23.5
X92.5Y-22.7
X92.5Y-25.24
X92.5Y-27.78
X92.5Y-30.32
X92.525Y-34.75
X92.525Y-37.29
T4
X67.3Y-47.24
X67.3Y-49.78
X67.3Y-52.32
X67.3Y-54.86
X67.3Y-57.4
X67.3Y-59.94
X67.3Y-62.48
X67.3Y-65.02
X67.3Y-67.56
X67.3Y-70.1
X67.3Y-72.64
X67.3Y-75.18
X67.3Y-77.72
X67.3Y-80.26
X67.3Y-82.8
X67.3Y-85.34
X67.3Y-87.88
X67.3Y-90.42
X67.3Y-92.96
X92.7Y-47.24
X92.7Y-49.78
X92.7Y-52.32
X92.7Y-54.86
X92.7Y-57.4
X92.7Y-59.94
X92.7Y-62.48
X92.7Y-65.02
X92.7Y-67.56
X92.7Y-70.1
X92.7Y-72.64
X92.7Y-75.18
X92.7Y-77.72
X92.7Y-80.26
X92.7Y-82.8
X92.7Y-85.34
X92.7Y-87.88
X92.7Y-90.42
X92.7Y-92.96
M30
